AtkinsonHyperlegibleMono-SemiBold.sfdir
StartChar: dollar
Encoding: 36 36 304
Width: 632
GlyphClass: 1
Flags: W
LayerCount: 2
Fore
SplineSet
138.5 39 m 128,-1,1
 76 81 76 81 51 152 c 1,2,-1
 166 195 l 1,3,4
 176 154 176 154 208.5 127.5 c 128,-1,5
 241 101 241 101 285 93 c 1,6,-1
 285 295 l 1,7,-1
 252 302 l 2,8,9
 66 344 66 344 66 481 c 0,10,11
 66 538 66 538 96 580 c 128,-1,12
 126 622 126 622 176 647 c 128,-1,13
 226 672 226 672 285 678 c 1,14,-1
 285 758 l 1,15,-1
 345 758 l 1,16,-1
 345 679 l 1,17,18
 417 675 417 675 476 641 c 128,-1,19
 535 607 535 607 562 544 c 1,20,-1
 448 500 l 1,21,22
 435 531 435 531 407.5 550 c 128,-1,23
 380 569 380 569 345 575 c 1,24,-1
 345 395 l 1,25,-1
 368 389 l 1,26,27
 475 366 475 366 528 324.5 c 128,-1,28
 581 283 581 283 581 201 c 0,29,30
 581 140 581 140 549 94 c 128,-1,31
 517 48 517 48 463 21 c 128,-1,32
 409 -6 409 -6 345 -11 c 1,33,-1
 345 -90 l 1,34,-1
 285 -90 l 1,35,-1
 285 -10 l 1,36,0
 201 -3 201 -3 138.5 39 c 128,-1,1
424 120 m 128,-1,38
 455 145 455 145 455 188 c 0,39,40
 455 222 455 222 432 243.5 c 128,-1,41
 409 265 409 265 358 278 c 2,42,-1
 345 282 l 1,43,-1
 345 90 l 1,44,37
 393 95 393 95 424 120 c 128,-1,38
217.5 550 m 128,-1,46
 192 528 192 528 192 492 c 0,47,48
 192 462 192 462 212.5 442 c 128,-1,49
 233 422 233 422 272 412 c 2,50,-1
 285 408 l 1,51,-1
 285 577 l 1,52,45
 243 572 243 572 217.5 550 c 128,-1,46
EndSplineSet
EndChar
StartChar: percent
Encoding: 37 37 332
Width: 632
GlyphClass: 1
Flags: W
LayerCount: 2
Fore
SplineSet
84 401 m 128,-1,1
 50 421 50 421 30 455 c 128,-1,2
 10 489 10 489 10 530 c 256,3,4
 10 571 10 571 30 605.5 c 128,-1,5
 50 640 50 640 84 660 c 128,-1,6
 118 680 118 680 159 680 c 256,7,8
 200 680 200 680 234.5 660 c 128,-1,9
 269 640 269 640 289 605.5 c 128,-1,10
 309 571 309 571 309 530 c 256,11,12
 309 489 309 489 289 455 c 128,-1,13
 269 421 269 421 234.5 401 c 128,-1,14
 200 381 200 381 159 381 c 256,15,0
 118 381 118 381 84 401 c 128,-1,1
209 479.5 m 128,-1,17
 230 501 230 501 230 530 c 0,18,19
 230 560 230 560 209 581.5 c 128,-1,20
 188 603 188 603 159 603 c 256,21,22
 130 603 130 603 109.5 581.5 c 128,-1,23
 89 560 89 560 89 530 c 0,24,25
 89 501 89 501 110 479.5 c 128,-1,26
 131 458 131 458 159 458 c 0,27,16
 188 458 188 458 209 479.5 c 128,-1,17
449 668 m 1,28,-1
 545 668 l 1,29,-1
 183 0 l 1,30,-1
 87 0 l 1,31,-1
 449 668 l 1,28,-1
397 7 m 128,-1,33
 363 27 363 27 343 61 c 128,-1,34
 323 95 323 95 323 136 c 256,35,36
 323 177 323 177 343 211.5 c 128,-1,37
 363 246 363 246 397 266 c 128,-1,38
 431 286 431 286 472 286 c 256,39,40
 513 286 513 286 547.5 266 c 128,-1,41
 582 246 582 246 602 211.5 c 128,-1,42
 622 177 622 177 622 136 c 256,43,44
 622 95 622 95 602 61 c 128,-1,45
 582 27 582 27 547.5 7 c 128,-1,46
 513 -13 513 -13 472 -13 c 256,47,32
 431 -13 431 -13 397 7 c 128,-1,33
522 85.5 m 128,-1,49
 543 107 543 107 543 136 c 0,50,51
 543 166 543 166 522 187.5 c 128,-1,52
 501 209 501 209 472 209 c 256,53,54
 443 209 443 209 422.5 187.5 c 128,-1,55
 402 166 402 166 402 136 c 0,56,57
 402 107 402 107 423 85.5 c 128,-1,58
 444 64 444 64 472 64 c 0,59,48
 501 64 501 64 522 85.5 c 128,-1,49
EndSplineSet
EndChar
StartChar: parenleft
Encoding: 40 40 268
Width: 632
GlyphClass: 1
Flags: W
LayerCount: 2
Fore
SplineSet
202 45.5 m 128,-1,1
 150 157 150 157 150 273 c 256,2,3
 150 389 150 389 202 500.5 c 128,-1,4
 254 612 254 612 351 708 c 1,5,-1
 495 708 l 1,6,7
 388 609 388 609 330 496.5 c 128,-1,8
 272 384 272 384 272 273 c 256,9,10
 272 162 272 162 330 49.5 c 128,-1,11
 388 -63 388 -63 495 -162 c 1,12,-1
 351 -162 l 1,13,0
 254 -66 254 -66 202 45.5 c 128,-1,1
EndSplineSet
EndChar
StartChar: period
Encoding: 46 46 249
Width: 632
GlyphClass: 1
Flags: W
LayerCount: 2
Fore
SplineSet
251 15 m 128,-1,1
 224 42 224 42 224 80 c 256,2,3
 224 118 224 118 251 145 c 128,-1,4
 278 172 278 172 316 172 c 256,5,6
 354 172 354 172 381 145 c 128,-1,7
 408 118 408 118 408 80 c 256,8,9
 408 42 408 42 381 15 c 128,-1,10
 354 -12 354 -12 316 -12 c 256,11,0
 278 -12 278 -12 251 15 c 128,-1,1
EndSplineSet
EndChar
StartChar: slash
Encoding: 47 47 262
Width: 632
GlyphClass: 5
Flags: W
LayerCount: 2
Fore
SplineSet
458 708 m 1,0,-1
 585 708 l 1,1,-1
 174 -90 l 1,2,-1
 47 -90 l 1,3,-1
 458 708 l 1,0,-1
EndSplineSet
EndChar
StartChar: three
Encoding: 51 51 232
Width: 632
GlyphClass: 5
Flags: W
LayerCount: 2
Fore
SplineSet
159 29 m 128,-1,1
 94 70 94 70 69 145 c 1,2,-1
 183 184 l 1,3,4
 195 134 195 134 230.5 108 c 128,-1,5
 266 82 266 82 319 82 c 0,6,7
 374 82 374 82 408 111.5 c 128,-1,8
 442 141 442 141 442 190 c 0,9,10
 442 247 442 247 397.5 275 c 128,-1,11
 353 303 353 303 275 303 c 2,12,-1
 250 303 l 1,13,-1
 250 391 l 1,14,-1
 275 391 l 2,15,16
 345 391 345 391 387 418.5 c 128,-1,17
 429 446 429 446 429 496 c 0,18,19
 429 538 429 538 396 562 c 128,-1,20
 363 586 363 586 315 586 c 256,21,22
 267 586 267 586 233 561.5 c 128,-1,23
 199 537 199 537 190 491 c 1,24,-1
 77 530 l 1,25,26
 102 601 102 601 167.5 640.5 c 128,-1,27
 233 680 233 680 321 680 c 0,28,29
 382 680 382 680 435 660.5 c 128,-1,30
 488 641 488 641 521 602 c 128,-1,31
 554 563 554 563 554 506 c 256,32,33
 554 449 554 449 524 409 c 128,-1,34
 494 369 494 369 441 351 c 1,35,36
 503 334 503 334 536 290.5 c 128,-1,37
 569 247 569 247 569 192 c 0,38,39
 569 127 569 127 534 81 c 128,-1,40
 499 35 499 35 441.5 11.5 c 128,-1,41
 384 -12 384 -12 316 -12 c 0,42,0
 224 -12 224 -12 159 29 c 128,-1,1
EndSplineSet
Substitution2: "'sups' Superscript in Latin lookup 6 subtable" uni00B3
AlternateSubs2: "'aalt' Access All Alternates in Latin lookup 0 subtable" uni00B3
EndChar
StartChar: five
Encoding: 53 53 234
Width: 632
GlyphClass: 1
Flags: W
LayerCount: 2
Fore
SplineSet
161.5 29.5 m 128,-1,1
 99 71 99 71 72 144 c 1,2,-1
 181 182 l 1,3,4
 207 82 207 82 310 82 c 0,5,6
 368 82 368 82 406 119 c 128,-1,7
 444 156 444 156 444 220 c 0,8,9
 444 287 444 287 405.5 322.5 c 128,-1,10
 367 358 367 358 313 358 c 0,11,12
 274 358 274 358 242.5 340 c 128,-1,13
 211 322 211 322 192 288 c 1,14,-1
 81 328 l 1,15,-1
 123 668 l 1,16,-1
 541 668 l 1,17,-1
 541 565 l 1,18,-1
 226 565 l 1,19,-1
 207 408 l 1,20,21
 231 429 231 429 267.5 440.5 c 128,-1,22
 304 452 304 452 344 452 c 0,23,24
 405 452 405 452 457 425 c 128,-1,25
 509 398 509 398 540.5 345.5 c 128,-1,26
 572 293 572 293 572 220 c 256,27,28
 572 147 572 147 537 94.5 c 128,-1,29
 502 42 502 42 443.5 15 c 128,-1,30
 385 -12 385 -12 315 -12 c 0,31,0
 224 -12 224 -12 161.5 29.5 c 128,-1,1
EndSplineSet
EndChar
StartChar: six
Encoding: 54 54 235
Width: 632
GlyphClass: 1
Flags: W
LayerCount: 2
Fore
SplineSet
182 28.5 m 128,-1,1
 124 69 124 69 95 140.5 c 128,-1,2
 66 212 66 212 66 304 c 0,3,4
 66 470 66 470 133 575 c 128,-1,5
 200 680 200 680 342 680 c 0,6,7
 486 680 486 680 543 572 c 1,8,-1
 432 531 l 1,9,10
 420 557 420 557 394 572 c 128,-1,11
 368 587 368 587 334 587 c 0,12,13
 271 587 271 587 233 529.5 c 128,-1,14
 195 472 195 472 192 375 c 1,15,16
 217 407 217 407 258.5 427 c 128,-1,17
 300 447 300 447 353 447 c 0,18,19
 415 447 415 447 465 418.5 c 128,-1,20
 515 390 515 390 544 339 c 128,-1,21
 573 288 573 288 573 223 c 0,22,23
 573 156 573 156 541.5 102.5 c 128,-1,24
 510 49 510 49 453.5 18.5 c 128,-1,25
 397 -12 397 -12 324 -12 c 0,26,0
 240 -12 240 -12 182 28.5 c 128,-1,1
413 119 m 128,-1,28
 446 156 446 156 446 217 c 256,29,30
 446 278 446 278 412.5 315.5 c 128,-1,31
 379 353 379 353 323 353 c 256,32,33
 267 353 267 353 233 315.5 c 128,-1,34
 199 278 199 278 199 217 c 256,35,36
 199 156 199 156 233 119 c 128,-1,37
 267 82 267 82 324 82 c 0,38,27
 380 82 380 82 413 119 c 128,-1,28
EndSplineSet
EndChar
StartChar: seven
Encoding: 55 55 236
Width: 632
GlyphClass: 1
Flags: W
LayerCount: 2
Fore
SplineSet
427 564 m 1,0,-1
 77 564 l 1,1,-1
 77 668 l 1,2,-1
 558 668 l 1,3,-1
 558 564 l 1,4,-1
 292 0 l 1,5,-1
 150 0 l 1,6,-1
 427 564 l 1,0,-1
EndSplineSet
EndChar
StartChar: nine
Encoding: 57 57 238
Width: 632
GlyphClass: 1
Flags: W
LayerCount: 2
Fore
SplineSet
304 203 m 0,1,2
 244 203 244 203 189.5 233.5 c 128,-1,3
 135 264 135 264 102 318 c 128,-1,4
 69 372 69 372 69 440 c 0,5,6
 69 506 69 506 101.5 561 c 128,-1,7
 134 616 134 616 189 648 c 128,-1,8
 244 680 244 680 309 680 c 0,9,10
 375 680 375 680 431 647.5 c 128,-1,11
 487 615 487 615 519.5 559.5 c 128,-1,12
 552 504 552 504 552 438 c 0,13,14
 552 400 552 400 540.5 365.5 c 128,-1,15
 529 331 529 331 500 278 c 2,16,-1
 349 0 l 1,17,-1
 221 0 l 1,18,-1
 337 205 l 1,19,0
 326 203 326 203 304 203 c 0,1,2
376 325.5 m 128,-1,21
 406 343 406 343 423.5 373 c 128,-1,22
 441 403 441 403 441 438 c 0,23,24
 441 470 441 470 425 500.5 c 128,-1,25
 409 531 409 531 379.5 550.5 c 128,-1,26
 350 570 350 570 311 570 c 0,27,28
 273 570 273 570 243 551.5 c 128,-1,29
 213 533 213 533 196.5 503 c 128,-1,30
 180 473 180 473 180 439 c 0,31,32
 180 402 180 402 198.5 372 c 128,-1,33
 217 342 217 342 247 325 c 128,-1,34
 277 308 277 308 311 308 c 0,35,20
 346 308 346 308 376 325.5 c 128,-1,21
EndSplineSet
EndChar
StartChar: less
Encoding: 60 60 318
Width: 632
GlyphClass: 1
Flags: W
LayerCount: 2
Fore
SplineSet
74 207 m 1,0,-1
 74 291 l 1,1,-1
 558 503 l 1,2,-1
 558 385 l 1,3,-1
 215 249 l 1,4,-1
 558 112 l 1,5,-1
 558 -6 l 1,6,-1
 74 207 l 1,0,-1
EndSplineSet
EndChar
StartChar: F
Encoding: 70 70 32
Width: 632
GlyphClass: 2
Flags: W
AnchorPoint: "Anchor-1" 311 668 basechar 0
AnchorPoint: "Anchor-0" 311 0 basechar 0
LayerCount: 2
Fore
SplineSet
109 668 m 1,0,-1
 555 668 l 1,1,-1
 555 555 l 1,2,-1
 238 555 l 1,3,-1
 238 378 l 1,4,-1
 551 378 l 1,5,-1
 551 265 l 1,6,-1
 238 265 l 1,7,-1
 238 0 l 1,8,-1
 109 0 l 1,9,-1
 109 668 l 1,0,-1
EndSplineSet
EndChar
StartChar: G
Encoding: 71 71 33
Width: 632
GlyphClass: 2
Flags: W
AnchorPoint: "Anchor-1" 313 668 basechar 0
AnchorPoint: "Anchor-0" 313 0 basechar 0
LayerCount: 2
Fore
SplineSet
165.5 31 m 128,-1,1
 104 74 104 74 71 153 c 128,-1,2
 38 232 38 232 38 335 c 0,3,4
 38 439 38 439 73.5 517 c 128,-1,5
 109 595 109 595 174 637.5 c 128,-1,6
 239 680 239 680 324 680 c 0,7,8
 403 680 403 680 466.5 641 c 128,-1,9
 530 602 530 602 558 528 c 1,10,-1
 456 490 l 1,11,12
 440 530 440 530 407 553.5 c 128,-1,13
 374 577 374 577 326 577 c 256,14,15
 278 577 278 577 240.5 549.5 c 128,-1,16
 203 522 203 522 181.5 467.5 c 128,-1,17
 160 413 160 413 160 335 c 0,18,19
 160 219 160 219 206.5 155 c 128,-1,20
 253 91 253 91 331 91 c 0,21,22
 387 91 387 91 428.5 127 c 128,-1,23
 470 163 470 163 470 243 c 2,24,-1
 470 265 l 1,25,-1
 323 265 l 1,26,-1
 323 363 l 1,27,-1
 580 363 l 1,28,-1
 580 0 l 1,29,-1
 506 0 l 1,30,-1
 487 80 l 1,31,32
 460 35 460 35 412 11.5 c 128,-1,33
 364 -12 364 -12 309 -12 c 0,34,0
 227 -12 227 -12 165.5 31 c 128,-1,1
EndSplineSet
EndChar
StartChar: H
Encoding: 72 72 37
Width: 632
GlyphClass: 2
Flags: W
AnchorPoint: "Anchor-1" 316 668 basechar 0
AnchorPoint: "Anchor-0" 316 0 basechar 0
LayerCount: 2
Fore
SplineSet
56 668 m 1,0,-1
 185 668 l 1,1,-1
 185 400 l 1,2,-1
 447 400 l 1,3,-1
 447 668 l 1,4,-1
 576 668 l 1,5,-1
 576 0 l 1,6,-1
 447 0 l 1,7,-1
 447 287 l 1,8,-1
 185 287 l 1,9,-1
 185 0 l 1,10,-1
 56 0 l 1,11,-1
 56 668 l 1,0,-1
EndSplineSet
EndChar
StartChar: J
Encoding: 74 74 48
Width: 632
GlyphClass: 2
Flags: W
AnchorPoint: "Anchor-1" 479 668 basechar 0
AnchorPoint: "Anchor-0" 314 0 basechar 0
LayerCount: 2
Fore
SplineSet
113 38 m 128,-1,1
 49 88 49 88 35 181 c 1,2,-1
 154 222 l 1,3,4
 159 159 159 159 194.5 125 c 128,-1,5
 230 91 230 91 287 91 c 0,6,7
 347 91 347 91 381 123.5 c 128,-1,8
 415 156 415 156 415 235 c 2,9,-1
 415 668 l 1,10,-1
 543 668 l 1,11,-1
 543 235 l 2,12,13
 543 117 543 117 477 52.5 c 128,-1,14
 411 -12 411 -12 286 -12 c 0,15,0
 177 -12 177 -12 113 38 c 128,-1,1
EndSplineSet
Substitution2: "Single Substitution lookup 13 subtable" uni004A0301
AlternateSubs2: "'aalt' Access All Alternates in Latin lookup 0 subtable" uni004A0301
EndChar
StartChar: L
Encoding: 76 76 52
Width: 632
GlyphClass: 2
Flags: W
AnchorPoint: "Anchor-3" 302 459 basechar 0
AnchorPoint: "Anchor-1" 328 668 basechar 0
AnchorPoint: "Anchor-0" 335 0 basechar 0
LayerCount: 2
Fore
SplineSet
118 668 m 1,0,-1
 246 668 l 1,1,-1
 246 113 l 1,2,-1
 583 113 l 1,3,-1
 583 0 l 1,4,-1
 118 0 l 1,5,-1
 118 668 l 1,0,-1
EndSplineSet
EndChar
StartChar: O
Encoding: 79 79 62
Width: 632
GlyphClass: 2
Flags: W
AnchorPoint: "Anchor-3" 614 668 basechar 0
AnchorPoint: "Anchor-2" 568 10 basechar 0
AnchorPoint: "Anchor-1" 317 668 basechar 0
AnchorPoint: "Anchor-0" 317 0 basechar 0
LayerCount: 2
Fore
SplineSet
168 31 m 128,-1,1
 105 74 105 74 71.5 152 c 128,-1,2
 38 230 38 230 38 334 c 256,3,4
 38 438 38 438 71.5 516 c 128,-1,5
 105 594 105 594 168 637 c 128,-1,6
 231 680 231 680 316 680 c 256,7,8
 401 680 401 680 464 637 c 128,-1,9
 527 594 527 594 560.5 516 c 128,-1,10
 594 438 594 438 594 334 c 256,11,12
 594 230 594 230 560.5 152 c 128,-1,13
 527 74 527 74 464 31 c 128,-1,14
 401 -12 401 -12 316 -12 c 256,15,0
 231 -12 231 -12 168 31 c 128,-1,1
426.5 154 m 128,-1,17
 468 217 468 217 468 334 c 256,18,19
 468 451 468 451 426.5 514 c 128,-1,20
 385 577 385 577 316 577 c 256,21,22
 247 577 247 577 205.5 514 c 128,-1,23
 164 451 164 451 164 334 c 256,24,25
 164 217 164 217 205.5 154 c 128,-1,26
 247 91 247 91 316 91 c 256,27,16
 385 91 385 91 426.5 154 c 128,-1,17
EndSplineSet
Substitution2: "Single Substitution lookup 14 subtable" ordmasculine
AlternateSubs2: "'aalt' Access All Alternates in Latin lookup 0 subtable" ordmasculine
EndChar
StartChar: Q
Encoding: 81 81 73
Width: 632
GlyphClass: 1
Flags: W
LayerCount: 2
Fore
SplineSet
168 31 m 128,-1,1
 105 74 105 74 71.5 152 c 128,-1,2
 38 230 38 230 38 334 c 256,3,4
 38 438 38 438 71.5 516 c 128,-1,5
 105 594 105 594 168 637 c 128,-1,6
 231 680 231 680 316 680 c 256,7,8
 401 680 401 680 464 637 c 128,-1,9
 527 594 527 594 560.5 516 c 128,-1,10
 594 438 594 438 594 334 c 0,11,12
 594 220 594 220 552 134 c 1,13,-1
 632 59 l 1,14,-1
 564 -14 l 1,15,-1
 492 54 l 1,16,17
 423 -12 423 -12 316 -12 c 0,18,0
 231 -12 231 -12 168 31 c 128,-1,1
409 132 m 1,20,-1
 279 254 l 1,21,-1
 348 326 l 1,22,-1
 452 227 l 1,23,24
 468 271 468 271 468 334 c 0,25,26
 468 451 468 451 426.5 514 c 128,-1,27
 385 577 385 577 316 577 c 256,28,29
 247 577 247 577 205.5 514 c 128,-1,30
 164 451 164 451 164 334 c 256,31,32
 164 217 164 217 205.5 154 c 128,-1,33
 247 91 247 91 316 91 c 0,34,19
 371 91 371 91 409 132 c 1,20,-1
EndSplineSet
EndChar
StartChar: R
Encoding: 82 82 74
Width: 632
GlyphClass: 2
Flags: W
AnchorPoint: "Anchor-1" 295 668 basechar 0
AnchorPoint: "Anchor-0" 315 0 basechar 0
LayerCount: 2
Fore
SplineSet
75 668 m 1,0,-1
 319 668 l 2,1,2
 428 668 428 668 495.5 617.5 c 128,-1,3
 563 567 563 567 563 465 c 0,4,5
 563 385 563 385 519.5 338 c 128,-1,6
 476 291 476 291 401 275 c 1,7,-1
 587 0 l 1,8,-1
 446 0 l 1,9,-1
 276 262 l 1,10,-1
 194 262 l 1,11,-1
 194 0 l 1,12,-1
 75 0 l 1,13,-1
 75 668 l 1,0,-1
406.5 389 m 128,-1,15
 440 414 440 414 440 465 c 256,16,17
 440 516 440 516 406.5 540.5 c 128,-1,18
 373 565 373 565 318 565 c 2,19,-1
 194 565 l 1,20,-1
 194 364 l 1,21,-1
 318 364 l 2,22,14
 373 364 373 364 406.5 389 c 128,-1,15
EndSplineSet
EndChar
StartChar: S
Encoding: 83 83 77
Width: 632
GlyphClass: 2
Flags: W
AnchorPoint: "Anchor-1" 316 668 basechar 0
AnchorPoint: "Anchor-0" 316 0 basechar 0
LayerCount: 2
Fore
SplineSet
151.5 31 m 128,-1,1
 79 74 79 74 51 152 c 1,2,-1
 170 195 l 1,3,4
 183 147 183 147 225 119.5 c 128,-1,5
 267 92 267 92 321 92 c 0,6,7
 374 92 374 92 412.5 117.5 c 128,-1,8
 451 143 451 143 451 189 c 0,9,10
 451 225 451 225 422 247 c 128,-1,11
 393 269 393 269 326 283 c 2,12,-1
 258 298 l 2,13,14
 67 339 67 339 67 485 c 0,15,16
 67 542 67 542 101.5 586.5 c 128,-1,17
 136 631 136 631 194.5 655.5 c 128,-1,18
 253 680 253 680 322 680 c 0,19,20
 400 680 400 680 465.5 646 c 128,-1,21
 531 612 531 612 560 544 c 1,22,-1
 443 500 l 1,23,24
 427 536 427 536 391.5 556 c 128,-1,25
 356 576 356 576 314 576 c 0,26,27
 263 576 263 576 229.5 553.5 c 128,-1,28
 196 531 196 531 196 490 c 0,29,30
 196 431 196 431 285 411 c 2,31,-1
 361 393 l 2,32,33
 469 370 469 370 524.5 327.5 c 128,-1,34
 580 285 580 285 580 202 c 0,35,36
 580 138 580 138 544.5 89.5 c 128,-1,37
 509 41 509 41 448.5 14.5 c 128,-1,38
 388 -12 388 -12 318 -12 c 0,39,0
 224 -12 224 -12 151.5 31 c 128,-1,1
EndSplineSet
EndChar
StartChar: U
Encoding: 85 85 87
Width: 632
GlyphClass: 2
Flags: W
AnchorPoint: "Anchor-3" 633 668 basechar 0
AnchorPoint: "Anchor-1" 316 668 basechar 0
LayerCount: 2
Fore
SplineSet
122.5 53.5 m 128,-1,1
 63 119 63 119 63 258 c 2,2,-1
 63 668 l 1,3,-1
 192 668 l 1,4,-1
 192 242 l 2,5,6
 192 168 192 168 220.5 130.5 c 128,-1,7
 249 93 249 93 317 93 c 256,8,9
 385 93 385 93 412.5 130 c 128,-1,10
 440 167 440 167 440 242 c 2,11,-1
 440 668 l 1,12,-1
 569 668 l 1,13,-1
 569 258 l 2,14,15
 569 120 569 120 509 54 c 128,-1,16
 449 -12 449 -12 316 -12 c 0,17,0
 182 -12 182 -12 122.5 53.5 c 128,-1,1
EndSplineSet
EndChar
StartChar: X
Encoding: 88 88 102
Width: 632
GlyphClass: 2
Flags: W
AnchorPoint: "Anchor-1" 317 668 basechar 0
AnchorPoint: "Anchor-0" 317 0 basechar 0
LayerCount: 2
Fore
SplineSet
248 344 m 1,0,-1
 36 668 l 1,1,-1
 172 668 l 1,2,-1
 314 450 l 1,3,-1
 318 450 l 1,4,-1
 460 668 l 1,5,-1
 596 668 l 1,6,-1
 385 344 l 1,7,-1
 609 0 l 1,8,-1
 473 0 l 1,9,-1
 318 239 l 1,10,-1
 314 239 l 1,11,-1
 160 0 l 1,12,-1
 24 0 l 1,13,-1
 248 344 l 1,0,-1
EndSplineSet
EndChar
StartChar: Z
Encoding: 90 90 108
Width: 632
GlyphClass: 2
Flags: W
AnchorPoint: "Anchor-1" 318 668 basechar 0
AnchorPoint: "Anchor-0" 317 0 basechar 0
LayerCount: 2
Fore
SplineSet
50 103 m 1,0,-1
 409 554 l 1,1,-1
 65 554 l 1,2,-1
 65 668 l 1,3,-1
 568 668 l 1,4,-1
 568 565 l 1,5,-1
 212 114 l 1,6,-1
 583 114 l 1,7,-1
 583 0 l 1,8,-1
 50 0 l 1,9,-1
 50 103 l 1,0,-1
EndSplineSet
EndChar
StartChar: b
Encoding: 98 98 123
Width: 632
GlyphClass: 2
Flags: W
AnchorPoint: "Anchor-1" 311 496 basechar 0
AnchorPoint: "Anchor-0" 311 0 basechar 0
LayerCount: 2
Fore
SplineSet
267.5 10.5 m 128,-1,1
 223 33 223 33 199 73 c 1,2,-1
 183 0 l 1,3,-1
 75 0 l 1,4,-1
 75 708 l 1,5,-1
 199 708 l 1,6,-1
 199 421 l 1,7,8
 224 462 224 462 268.5 485.5 c 128,-1,9
 313 509 313 509 361 509 c 0,10,11
 428 509 428 509 479 478.5 c 128,-1,12
 530 448 530 448 558 389.5 c 128,-1,13
 586 331 586 331 586 251 c 256,14,15
 586 171 586 171 558 111.5 c 128,-1,16
 530 52 530 52 479 20 c 128,-1,17
 428 -12 428 -12 361 -12 c 0,18,0
 312 -12 312 -12 267.5 10.5 c 128,-1,1
421 130 m 128,-1,20
 458 174 458 174 458 251 c 0,21,22
 458 327 458 327 421 369.5 c 128,-1,23
 384 412 384 412 326 412 c 0,24,25
 267 412 267 412 230.5 370 c 128,-1,26
 194 328 194 328 194 249 c 0,27,28
 194 169 194 169 230.5 127.5 c 128,-1,29
 267 86 267 86 326 86 c 0,30,19
 384 86 384 86 421 130 c 128,-1,20
EndSplineSet
EndChar
StartChar: c
Encoding: 99 99 124
Width: 632
GlyphClass: 2
Flags: W
AnchorPoint: "Anchor-1" 349 496 basechar 0
AnchorPoint: "Anchor-0" 342 0 basechar 0
LayerCount: 2
Fore
SplineSet
201 21 m 128,-1,1
 142 54 142 54 111.5 113 c 128,-1,2
 81 172 81 172 81 249 c 0,3,4
 81 324 81 324 114 383.5 c 128,-1,5
 147 443 147 443 206.5 476 c 128,-1,6
 266 509 266 509 342 509 c 0,7,8
 419 509 419 509 478 477.5 c 128,-1,9
 537 446 537 446 567 385 c 1,10,-1
 462 347 l 1,11,12
 448 378 448 378 419 395 c 128,-1,13
 390 412 390 412 349 412 c 0,14,15
 290 412 290 412 249 371.5 c 128,-1,16
 208 331 208 331 208 249 c 256,17,18
 208 167 208 167 249 126.5 c 128,-1,19
 290 86 290 86 348 86 c 0,20,21
 387 86 387 86 418 101 c 128,-1,22
 449 116 449 116 464 142 c 1,23,-1
 567 104 l 1,24,25
 537 51 537 51 477 19.5 c 128,-1,26
 417 -12 417 -12 341 -12 c 0,27,0
 260 -12 260 -12 201 21 c 128,-1,1
EndSplineSet
EndChar
StartChar: d
Encoding: 100 100 129
Width: 632
GlyphClass: 2
Flags: W
AnchorPoint: "Anchor-3" 575 497 basechar 0
AnchorPoint: "Anchor-1" 321 796 basechar 0
AnchorPoint: "Anchor-0" 321 0 basechar 0
LayerCount: 2
Fore
SplineSet
153 20 m 128,-1,1
 102 52 102 52 74 111.5 c 128,-1,2
 46 171 46 171 46 251 c 256,3,4
 46 331 46 331 74.5 389.5 c 128,-1,5
 103 448 103 448 153.5 478.5 c 128,-1,6
 204 509 204 509 271 509 c 0,7,8
 320 509 320 509 364 486 c 128,-1,9
 408 463 408 463 433 421 c 1,10,-1
 433 708 l 1,11,-1
 557 708 l 1,12,-1
 557 191 l 2,13,14
 557 90 557 90 574 0 c 1,15,-1
 456 0 l 1,16,-1
 435 71 l 1,17,18
 405 30 405 30 362 9 c 128,-1,19
 319 -12 319 -12 271 -12 c 0,20,0
 204 -12 204 -12 153 20 c 128,-1,1
401.5 127.5 m 128,-1,22
 438 169 438 169 438 249 c 0,23,24
 438 328 438 328 401.5 370 c 128,-1,25
 365 412 365 412 307 412 c 0,26,27
 248 412 248 412 211 369.5 c 128,-1,28
 174 327 174 327 174 251 c 0,29,30
 174 174 174 174 211 130 c 128,-1,31
 248 86 248 86 307 86 c 0,32,21
 365 86 365 86 401.5 127.5 c 128,-1,22
EndSplineSet
EndChar
StartChar: k
Encoding: 107 107 161
Width: 632
GlyphClass: 2
Flags: W
AnchorPoint: "Anchor-1" 326 796 basechar 0
AnchorPoint: "Anchor-0" 328 0 basechar 0
LayerCount: 2
Fore
SplineSet
100 708 m 1,0,-1
 224 708 l 1,1,-1
 224 282 l 1,2,-1
 437 496 l 1,3,-1
 587 496 l 1,4,-1
 379 290 l 1,5,-1
 606 0 l 1,6,-1
 457 0 l 1,7,-1
 295 205 l 1,8,-1
 224 136 l 1,9,-1
 224 0 l 1,10,-1
 100 0 l 1,11,-1
 100 708 l 1,0,-1
EndSplineSet
EndChar
StartChar: m
Encoding: 109 109 167
Width: 632
GlyphClass: 2
Flags: W
AnchorPoint: "Anchor-1" 316 496 basechar 0
AnchorPoint: "Anchor-0" 318 0 basechar 0
LayerCount: 2
Fore
SplineSet
53 496 m 1,0,-1
 138 496 l 1,1,-1
 149 447 l 1,2,3
 166 475 166 475 193 492 c 128,-1,4
 220 509 220 509 255 509 c 0,5,6
 329 509 329 509 354 449 c 1,7,8
 370 475 370 475 399 492 c 128,-1,9
 428 509 428 509 465 509 c 0,10,11
 522 509 522 509 551.5 473 c 128,-1,12
 581 437 581 437 581 376 c 2,13,-1
 581 0 l 1,14,-1
 477 0 l 1,15,-1
 477 338 l 2,16,17
 477 412 477 412 428 412 c 0,18,19
 400 412 400 412 384.5 388.5 c 128,-1,20
 369 365 369 365 369 319 c 2,21,-1
 369 0 l 1,22,-1
 265 0 l 1,23,-1
 265 339 l 2,24,25
 265 412 265 412 217 412 c 0,26,27
 189 412 189 412 173 388 c 128,-1,28
 157 364 157 364 157 318 c 2,29,-1
 157 0 l 1,30,-1
 53 0 l 1,31,-1
 53 496 l 1,0,-1
EndSplineSet
EndChar
StartChar: o
Encoding: 111 111 173
Width: 632
GlyphClass: 2
Flags: W
AnchorPoint: "Anchor-3" 587 496 basechar 0
AnchorPoint: "Anchor-2" 550 10 basechar 0
AnchorPoint: "Anchor-1" 316 496 basechar 0
AnchorPoint: "Anchor-0" 316 0 basechar 0
LayerCount: 2
Fore
SplineSet
189 17 m 128,-1,1
 130 46 130 46 93.5 105 c 128,-1,2
 57 164 57 164 57 250 c 0,3,4
 57 335 57 335 93 393.5 c 128,-1,5
 129 452 129 452 188 480.5 c 128,-1,6
 247 509 247 509 316 509 c 256,7,8
 385 509 385 509 444 480.5 c 128,-1,9
 503 452 503 452 539 393.5 c 128,-1,10
 575 335 575 335 575 250 c 0,11,12
 575 164 575 164 538.5 105 c 128,-1,13
 502 46 502 46 443 17 c 128,-1,14
 384 -12 384 -12 316 -12 c 256,15,0
 248 -12 248 -12 189 17 c 128,-1,1
411 128 m 128,-1,17
 448 170 448 170 448 250 c 0,18,19
 448 329 448 329 410.5 370.5 c 128,-1,20
 373 412 373 412 316 412 c 256,21,22
 259 412 259 412 221.5 370.5 c 128,-1,23
 184 329 184 329 184 250 c 0,24,25
 184 170 184 170 221 128 c 128,-1,26
 258 86 258 86 316 86 c 256,27,16
 374 86 374 86 411 128 c 128,-1,17
EndSplineSet
Substitution2: "Single Substitution lookup 14 subtable" ordmasculine
AlternateSubs2: "'aalt' Access All Alternates in Latin lookup 0 subtable" ordmasculine
EndChar
StartChar: q
Encoding: 113 113 184
Width: 632
GlyphClass: 2
Flags: W
AnchorPoint: "Anchor-1" 324 496 basechar 0
AnchorPoint: "Anchor-0" 324 0 basechar 0
LayerCount: 2
Fore
SplineSet
450.5 -140.5 m 128,-1,1
 414 -107 414 -107 414 -24 c 2,2,-1
 414 75 l 1,3,4
 390 35 390 35 347.5 11.5 c 128,-1,5
 305 -12 305 -12 256 -12 c 0,6,7
 194 -12 194 -12 146.5 19 c 128,-1,8
 99 50 99 50 72.5 109 c 128,-1,9
 46 168 46 168 46 248 c 256,10,11
 46 328 46 328 73 387 c 128,-1,12
 100 446 100 446 148 477.5 c 128,-1,13
 196 509 196 509 259 509 c 0,14,15
 306 509 306 509 348 485.5 c 128,-1,16
 390 462 390 462 414 421 c 1,17,-1
 431 496 l 1,18,-1
 538 496 l 1,19,-1
 538 8 l 2,20,21
 538 -28 538 -28 547.5 -46.5 c 128,-1,22
 557 -65 557 -65 584 -65 c 0,23,24
 608 -65 608 -65 632 -53 c 1,25,-1
 632 -157 l 1,26,27
 594 -174 594 -174 548 -174 c 0,28,0
 487 -174 487 -174 450.5 -140.5 c 128,-1,1
385.5 128 m 128,-1,30
 419 170 419 170 419 249 c 256,31,32
 419 328 419 328 385 370 c 128,-1,33
 351 412 351 412 297 412 c 256,34,35
 243 412 243 412 208.5 369 c 128,-1,36
 174 326 174 326 174 249 c 256,37,38
 174 172 174 172 208.5 129 c 128,-1,39
 243 86 243 86 297 86 c 0,40,29
 352 86 352 86 385.5 128 c 128,-1,30
EndSplineSet
EndChar
StartChar: r
Encoding: 114 114 185
Width: 632
GlyphClass: 2
Flags: W
AnchorPoint: "Anchor-1" 325 496 basechar 0
AnchorPoint: "Anchor-0" 192 0 basechar 0
LayerCount: 2
Fore
SplineSet
130 496 m 1,0,-1
 227 496 l 1,1,-1
 250 393 l 1,2,3
 288 452 288 452 346 480 c 128,-1,4
 404 508 404 508 473 508 c 0,5,6
 516 508 516 508 559 498 c 1,7,-1
 559 374 l 1,8,9
 507 392 507 392 449 392 c 0,10,11
 358 392 358 392 306 341 c 128,-1,12
 254 290 254 290 254 194 c 2,13,-1
 254 0 l 1,14,-1
 130 0 l 1,15,-1
 130 496 l 1,0,-1
EndSplineSet
EndChar
StartChar: s
Encoding: 115 115 188
Width: 632
GlyphClass: 2
Flags: W
AnchorPoint: "Anchor-1" 319 496 basechar 0
AnchorPoint: "Anchor-0" 323 0 basechar 0
LayerCount: 2
Fore
SplineSet
172.5 20.5 m 128,-1,1
 108 53 108 53 82 113 c 1,2,-1
 189 153 l 1,3,4
 199 118 199 118 235.5 99 c 128,-1,5
 272 80 272 80 324 80 c 0,6,7
 372 80 372 80 402 96 c 128,-1,8
 432 112 432 112 432 141 c 0,9,10
 432 164 432 164 411 177.5 c 128,-1,11
 390 191 390 191 341 201 c 2,12,-1
 255 217 l 2,13,14
 182 230 182 230 141 264.5 c 128,-1,15
 100 299 100 299 100 356 c 0,16,17
 100 427 100 427 163 468 c 128,-1,18
 226 509 226 509 318 509 c 0,19,20
 394 509 394 509 451.5 481.5 c 128,-1,21
 509 454 509 454 534 399 c 1,22,-1
 428 359 l 1,23,24
 416 388 416 388 387 403 c 128,-1,25
 358 418 358 418 316 418 c 0,26,27
 270 418 270 418 244 403.5 c 128,-1,28
 218 389 218 389 218 363 c 0,29,30
 218 342 218 342 235 330.5 c 128,-1,31
 252 319 252 319 290 311 c 2,32,-1
 380 294 l 2,33,34
 470 277 470 277 510 244.5 c 128,-1,35
 550 212 550 212 550 149 c 0,36,37
 550 72 550 72 486 30 c 128,-1,38
 422 -12 422 -12 322 -12 c 0,39,0
 237 -12 237 -12 172.5 20.5 c 128,-1,1
EndSplineSet
EndChar
StartChar: u
Encoding: 117 117 198
Width: 632
GlyphClass: 2
Flags: W
AnchorPoint: "Anchor-3" 572 496 basechar 0
AnchorPoint: "Anchor-2" 539 10 basechar 0
AnchorPoint: "Anchor-1" 315 496 basechar 0
AnchorPoint: "Anchor-0" 311 0 basechar 0
LayerCount: 2
Fore
SplineSet
129.5 39 m 128,-1,1
 89 90 89 90 89 189 c 2,2,-1
 89 496 l 1,3,-1
 214 496 l 1,4,-1
 214 222 l 2,5,6
 214 155 214 155 232 120.5 c 128,-1,7
 250 86 250 86 305 86 c 256,8,9
 360 86 360 86 387 121.5 c 128,-1,10
 414 157 414 157 414 231 c 2,11,-1
 414 496 l 1,12,-1
 539 496 l 1,13,-1
 539 0 l 1,14,-1
 433 0 l 1,15,-1
 415 74 l 1,16,17
 392 34 392 34 356.5 11 c 128,-1,18
 321 -12 321 -12 264 -12 c 0,19,0
 170 -12 170 -12 129.5 39 c 128,-1,1
EndSplineSet
EndChar
StartChar: y
Encoding: 121 121 214
Width: 632
GlyphClass: 2
Flags: W
AnchorPoint: "Anchor-1" 316 496 basechar 0
AnchorPoint: "Anchor-0" 315 0 basechar 0
LayerCount: 2
Fore
SplineSet
82 -68 m 1,0,-1
 156 -68 l 2,1,2
 197 -68 197 -68 214.5 -60 c 128,-1,3
 232 -52 232 -52 243 -27 c 2,4,-1
 258 7 l 1,5,-1
 53 496 l 1,6,-1
 186 496 l 1,7,-1
 315 152 l 1,8,-1
 319 152 l 1,9,-1
 446 496 l 1,10,-1
 579 496 l 1,11,-1
 359 -26 l 2,12,13
 336 -82 336 -82 315.5 -110 c 128,-1,14
 295 -138 295 -138 263 -150 c 128,-1,15
 231 -162 231 -162 173 -162 c 2,16,-1
 82 -162 l 1,17,-1
 82 -68 l 1,0,-1
EndSplineSet
EndChar
StartChar: braceright
Encoding: 125 125 271
Width: 632
GlyphClass: 1
Flags: W
LayerCount: 2
Fore
SplineSet
142 -65 m 1,0,-1
 253 -65 l 2,1,2
 283 -65 283 -65 294 -56 c 128,-1,3
 305 -47 305 -47 305 -22 c 2,4,-1
 305 138 l 2,5,6
 305 197 305 197 324.5 226 c 128,-1,7
 344 255 344 255 392 270 c 1,8,-1
 392 276 l 1,9,10
 344 291 344 291 324.5 320 c 128,-1,11
 305 349 305 349 305 408 c 2,12,-1
 305 568 l 2,13,14
 305 593 305 593 294 602 c 128,-1,15
 283 611 283 611 253 611 c 2,16,-1
 142 611 l 1,17,-1
 142 708 l 1,18,-1
 271 708 l 2,19,20
 355 708 355 708 389.5 675 c 128,-1,21
 424 642 424 642 424 567 c 2,22,-1
 424 417 l 2,23,24
 424 381 424 381 431.5 361.5 c 128,-1,25
 439 342 439 342 458.5 333.5 c 128,-1,26
 478 325 478 325 515 323 c 1,27,-1
 515 223 l 1,28,29
 478 221 478 221 458.5 212.5 c 128,-1,30
 439 204 439 204 431.5 184.5 c 128,-1,31
 424 165 424 165 424 129 c 2,32,-1
 424 -21 l 2,33,34
 424 -96 424 -96 389.5 -129 c 128,-1,35
 355 -162 355 -162 271 -162 c 2,36,-1
 142 -162 l 1,37,-1
 142 -65 l 1,0,-1
EndSplineSet
EndChar
StartChar: exclamdown
Encoding: 161 161 255
Width: 632
GlyphClass: 1
Flags: W
LayerCount: 2
Fore
SplineSet
249 2 m 1,0,-1
 274 276 l 1,1,-1
 356 276 l 1,2,-1
 382 2 l 1,3,-1
 382 -170 l 1,4,-1
 249 -170 l 1,5,-1
 249 2 l 1,0,-1
256.5 367.5 m 128,-1,7
 232 392 232 392 232 427 c 0,8,9
 232 461 232 461 256.5 485.5 c 128,-1,10
 281 510 281 510 315 510 c 0,11,12
 350 510 350 510 374.5 485.5 c 128,-1,13
 399 461 399 461 399 427 c 0,14,15
 399 392 399 392 374.5 367.5 c 128,-1,16
 350 343 350 343 315 343 c 0,17,6
 281 343 281 343 256.5 367.5 c 128,-1,7
EndSplineSet
EndChar
StartChar: sterling
Encoding: 163 163 307
Width: 632
GlyphClass: 1
Flags: W
LayerCount: 2
Fore
SplineSet
162 148.5 m 128,-1,1
 196 186 196 186 196 239 c 0,2,3
 196 267 196 267 182 305 c 1,4,-1
 70 305 l 1,5,-1
 70 369 l 1,6,-1
 148 369 l 1,7,8
 106 450 106 450 106 507 c 0,9,10
 106 588 106 588 171 634 c 128,-1,11
 236 680 236 680 341 680 c 0,12,13
 426 680 426 680 489.5 642 c 128,-1,14
 553 604 553 604 579 538 c 1,15,-1
 464 499 l 1,16,17
 453 540 453 540 420.5 559.5 c 128,-1,18
 388 579 388 579 344 579 c 0,19,20
 298 579 298 579 267 558.5 c 128,-1,21
 236 538 236 538 236 498 c 0,22,23
 236 472 236 472 246.5 446.5 c 128,-1,24
 257 421 257 421 283 369 c 1,25,-1
 459 369 l 1,26,-1
 459 305 l 1,27,-1
 312 305 l 1,28,29
 324 271 324 271 324 245 c 0,30,31
 324 162 324 162 228 101 c 1,32,33
 256 116 256 116 298 116 c 0,34,35
 315 116 315 116 336.5 112 c 128,-1,36
 358 108 358 108 378 103 c 0,37,38
 426 90 426 90 456 90 c 0,39,40
 480 90 480 90 502 97 c 128,-1,41
 524 104 524 104 556 119 c 1,42,-1
 592 21 l 1,43,44
 555 4 555 4 521 -4 c 128,-1,45
 487 -12 487 -12 447 -12 c 0,46,47
 423 -12 423 -12 402 -7.5 c 128,-1,48
 381 -3 381 -3 344 7 c 0,49,50
 311 16 311 16 290.5 20.5 c 128,-1,51
 270 25 270 25 247 25 c 0,52,53
 182 25 182 25 115 -11 c 1,54,-1
 70 82 l 1,55,0
 128 111 128 111 162 148.5 c 128,-1,1
EndSplineSet
EndChar
StartChar: yen
Encoding: 165 165 308
Width: 632
GlyphClass: 1
Flags: W
LayerCount: 2
Fore
SplineSet
252 80 m 1,0,-1
 114 80 l 1,1,-1
 114 144 l 1,2,-1
 252 144 l 1,3,-1
 252 217 l 1,4,-1
 114 217 l 1,5,-1
 114 281 l 1,6,-1
 239 281 l 1,7,-1
 22 668 l 1,8,-1
 173 668 l 1,9,-1
 317 386 l 1,10,-1
 321 386 l 1,11,-1
 465 668 l 1,12,-1
 610 668 l 1,13,-1
 393 281 l 1,14,-1
 519 281 l 1,15,-1
 519 217 l 1,16,-1
 381 217 l 1,17,-1
 381 144 l 1,18,-1
 519 144 l 1,19,-1
 519 80 l 1,20,-1
 381 80 l 1,21,-1
 381 0 l 1,22,-1
 252 0 l 1,23,-1
 252 80 l 1,0,-1
EndSplineSet
EndChar
StartChar: copyright
Encoding: 169 169 292
Width: 632
GlyphClass: 1
Flags: W
LayerCount: 2
Fore
SplineSet
163.5 33.5 m 128,-1,1
 96 80 96 80 58 159 c 128,-1,2
 20 238 20 238 20 333 c 256,3,4
 20 428 20 428 58 507.5 c 128,-1,5
 96 587 96 587 163.5 633.5 c 128,-1,6
 231 680 231 680 316 680 c 256,7,8
 401 680 401 680 468.5 633.5 c 128,-1,9
 536 587 536 587 574 507.5 c 128,-1,10
 612 428 612 428 612 333 c 256,11,12
 612 238 612 238 574 159 c 128,-1,13
 536 80 536 80 468.5 33.5 c 128,-1,14
 401 -13 401 -13 316 -13 c 256,15,0
 231 -13 231 -13 163.5 33.5 c 128,-1,1
203.5 195 m 128,-1,17
 162 247 162 247 162 335 c 256,18,19
 162 423 162 423 205 474.5 c 128,-1,20
 248 526 248 526 318 526 c 0,21,22
 362 526 362 526 397.5 503 c 128,-1,23
 433 480 433 480 451 436 c 1,24,-1
 380 406 l 1,25,26
 364 452 364 452 321 452 c 0,27,28
 289 452 289 452 267.5 423 c 128,-1,29
 246 394 246 394 246 335 c 0,30,31
 246 275 246 275 267.5 246 c 128,-1,32
 289 217 289 217 321 217 c 0,33,34
 364 217 364 217 382 257 c 1,35,-1
 451 227 l 1,36,37
 430 186 430 186 395 164.5 c 128,-1,38
 360 143 360 143 317 143 c 0,39,16
 245 143 245 143 203.5 195 c 128,-1,17
437 81 m 128,-1,41
 491 119 491 119 521.5 185 c 128,-1,42
 552 251 552 251 552 333 c 0,43,44
 552 416 552 416 521.5 482 c 128,-1,45
 491 548 491 548 437 586 c 128,-1,46
 383 624 383 624 316 624 c 256,47,48
 249 624 249 624 195 586 c 128,-1,49
 141 548 141 548 110.5 482 c 128,-1,50
 80 416 80 416 80 333 c 0,51,52
 80 251 80 251 110.5 185 c 128,-1,53
 141 119 141 119 195 81 c 128,-1,54
 249 43 249 43 316 43 c 256,55,40
 383 43 383 43 437 81 c 128,-1,41
EndSplineSet
EndChar
StartChar: ordfeminine
Encoding: 170 170 223
Width: 632
GlyphClass: 1
Flags: W
LayerCount: 2
Fore
SplineSet
184.5 362 m 128,-1,1
 152 389 152 389 152 434 c 0,2,3
 152 494 152 494 205.5 522.5 c 128,-1,4
 259 551 259 551 380 559 c 1,5,6
 380 591 380 591 366.5 609 c 128,-1,7
 353 627 353 627 316 627 c 0,8,9
 290 627 290 627 272 617 c 128,-1,10
 254 607 254 607 249 587 c 1,11,-1
 171 612 l 1,12,13
 186 650 186 650 226 671.5 c 128,-1,14
 266 693 266 693 324 693 c 0,15,16
 394 693 394 693 431.5 659.5 c 128,-1,17
 469 626 469 626 469 552 c 2,18,-1
 469 468 l 2,19,20
 469 425 469 425 471 397 c 128,-1,21
 473 369 473 369 479 343 c 1,22,-1
 399 343 l 1,23,-1
 387 387 l 1,24,25
 355 335 355 335 274 335 c 0,26,0
 217 335 217 335 184.5 362 c 128,-1,1
358 422.5 m 128,-1,28
 381 445 381 445 381 479 c 2,29,-1
 381 500 l 1,30,31
 306 498 306 498 275.5 483 c 128,-1,32
 245 468 245 468 245 439 c 0,33,34
 245 400 245 400 297 400 c 0,35,27
 335 400 335 400 358 422.5 c 128,-1,28
EndSplineSet
EndChar
StartChar: guillemotleft
Encoding: 171 171 280
Width: 632
GlyphClass: 1
Flags: W
LayerCount: 2
Fore
SplineSet
285 250 m 1,0,-1
 433 460 l 1,1,-1
 575 460 l 1,2,-1
 426 250 l 1,3,-1
 575 40 l 1,4,-1
 433 40 l 1,5,-1
 285 250 l 1,0,-1
58 250 m 1,6,-1
 206 460 l 1,7,-1
 348 460 l 1,8,-1
 199 250 l 1,9,-1
 348 40 l 1,10,-1
 206 40 l 1,11,-1
 58 250 l 1,6,-1
EndSplineSet
EndChar
StartChar: registered
Encoding: 174 174 293
Width: 632
GlyphClass: 1
Flags: W
LayerCount: 2
Fore
SplineSet
163.5 33.5 m 128,-1,1
 96 80 96 80 58 159 c 128,-1,2
 20 238 20 238 20 333 c 256,3,4
 20 428 20 428 58 507.5 c 128,-1,5
 96 587 96 587 163.5 633.5 c 128,-1,6
 231 680 231 680 316 680 c 256,7,8
 401 680 401 680 468.5 633.5 c 128,-1,9
 536 587 536 587 574 507.5 c 128,-1,10
 612 428 612 428 612 333 c 256,11,12
 612 238 612 238 574 159 c 128,-1,13
 536 80 536 80 468.5 33.5 c 128,-1,14
 401 -13 401 -13 316 -13 c 256,15,0
 231 -13 231 -13 163.5 33.5 c 128,-1,1
437 81 m 128,-1,17
 491 119 491 119 521.5 185 c 128,-1,18
 552 251 552 251 552 333 c 0,19,20
 552 416 552 416 521.5 482 c 128,-1,21
 491 548 491 548 437 586 c 128,-1,22
 383 624 383 624 316 624 c 256,23,24
 249 624 249 624 195 586 c 128,-1,25
 141 548 141 548 110.5 482 c 128,-1,26
 80 416 80 416 80 333 c 0,27,28
 80 251 80 251 110.5 185 c 128,-1,29
 141 119 141 119 195 81 c 128,-1,30
 249 43 249 43 316 43 c 256,31,16
 383 43 383 43 437 81 c 128,-1,17
188 529 m 1,32,-1
 314 529 l 2,33,34
 377 529 377 529 413.5 501.5 c 128,-1,35
 450 474 450 474 450 416 c 0,36,37
 450 379 450 379 432.5 351 c 128,-1,38
 415 323 415 323 375 310 c 1,39,-1
 467 162 l 1,40,-1
 383 162 l 1,41,-1
 299 301 l 1,42,-1
 263 301 l 1,43,-1
 263 162 l 1,44,-1
 188 162 l 1,45,-1
 188 529 l 1,32,-1
371 415 m 0,47,48
 371 441 371 441 355 452 c 128,-1,49
 339 463 339 463 309 463 c 2,50,-1
 263 463 l 1,51,-1
 263 367 l 1,52,-1
 310 367 l 2,53,46
 371 367 371 367 371 415 c 0,47,48
EndSplineSet
EndChar
StartChar: degree
Encoding: 176 176 295
Width: 632
GlyphClass: 1
Flags: W
LayerCount: 2
Fore
SplineSet
240.5 398 m 128,-1,1
 206 418 206 418 185.5 453 c 128,-1,2
 165 488 165 488 165 529 c 256,3,4
 165 570 165 570 185.5 604.5 c 128,-1,5
 206 639 206 639 240.5 659.5 c 128,-1,6
 275 680 275 680 316 680 c 256,7,8
 357 680 357 680 392 659.5 c 128,-1,9
 427 639 427 639 447 604.5 c 128,-1,10
 467 570 467 570 467 529 c 256,11,12
 467 488 467 488 447 453 c 128,-1,13
 427 418 427 418 392 398 c 128,-1,14
 357 378 357 378 316 378 c 256,15,0
 275 378 275 378 240.5 398 c 128,-1,1
369 476 m 128,-1,17
 391 498 391 498 391 529 c 0,18,19
 391 561 391 561 369.5 582.5 c 128,-1,20
 348 604 348 604 316 604 c 0,21,22
 285 604 285 604 263 582 c 128,-1,23
 241 560 241 560 241 529 c 256,24,25
 241 498 241 498 263 476 c 128,-1,26
 285 454 285 454 316 454 c 256,27,16
 347 454 347 454 369 476 c 128,-1,17
EndSplineSet
EndChar
StartChar: uni00B2
Encoding: 178 178 245
Width: 632
GlyphClass: 1
Flags: W
LayerCount: 2
Fore
SplineSet
329 574.5 m 128,-1,1
 378 626 378 626 378 668 c 0,2,3
 378 693 378 693 362 707 c 128,-1,4
 346 721 346 721 320 721 c 256,5,6
 294 721 294 721 275 706.5 c 128,-1,7
 256 692 256 692 252 663 c 1,8,-1
 172 687 l 1,9,10
 186 734 186 734 225 760 c 128,-1,11
 264 786 264 786 323 786 c 0,12,13
 388 786 388 786 427.5 756 c 128,-1,14
 467 726 467 726 467 672 c 0,15,16
 467 614 467 614 421 560.5 c 128,-1,17
 375 507 375 507 278 438 c 1,18,-1
 472 438 l 1,19,-1
 472 364 l 1,20,-1
 160 364 l 1,21,-1
 160 434 l 1,22,0
 280 523 280 523 329 574.5 c 128,-1,1
EndSplineSet
EndChar
StartChar: paragraph
Encoding: 182 182 290
Width: 632
GlyphClass: 1
Flags: W
LayerCount: 2
Fore
SplineSet
124 360 m 128,-1,1
 78 410 78 410 78 479 c 0,2,3
 78 531 78 531 105 574.5 c 128,-1,4
 132 618 132 618 182 643 c 128,-1,5
 232 668 232 668 297 668 c 2,6,-1
 559 668 l 1,7,-1
 559 608 l 1,8,-1
 516 608 l 1,9,-1
 516 -162 l 1,10,-1
 434 -162 l 1,11,-1
 434 608 l 1,12,-1
 334 608 l 1,13,-1
 334 -162 l 1,14,-1
 253 -162 l 1,15,-1
 253 295 l 1,16,0
 170 310 170 310 124 360 c 128,-1,1
EndSplineSet
EndChar
StartChar: uni00B9
Encoding: 185 185 244
Width: 632
GlyphClass: 1
Flags: W
LayerCount: 2
Fore
SplineSet
326 661 m 1,0,-1
 235 661 l 1,1,-1
 235 726 l 1,2,3
 277 726 277 726 304.5 738 c 128,-1,4
 332 750 332 750 342 779 c 1,5,-1
 411 779 l 1,6,-1
 411 364 l 1,7,-1
 326 364 l 1,8,-1
 326 661 l 1,0,-1
EndSplineSet
EndChar
StartChar: ordmasculine
Encoding: 186 186 224
Width: 632
GlyphClass: 1
Flags: W
LayerCount: 2
Fore
SplineSet
192.5 381 m 128,-1,1
 143 427 143 427 143 514 c 256,2,3
 143 601 143 601 192.5 647 c 128,-1,4
 242 693 242 693 316 693 c 256,5,6
 390 693 390 693 439.5 647 c 128,-1,7
 489 601 489 601 489 514 c 256,8,9
 489 427 489 427 439.5 381 c 128,-1,10
 390 335 390 335 316 335 c 256,11,0
 242 335 242 335 192.5 381 c 128,-1,1
375 435.5 m 128,-1,13
 397 464 397 464 397 514 c 0,14,15
 397 565 397 565 375 593.5 c 128,-1,16
 353 622 353 622 316 622 c 0,17,18
 280 622 280 622 257.5 593.5 c 128,-1,19
 235 565 235 565 235 514 c 0,20,21
 235 464 235 464 257.5 435.5 c 128,-1,22
 280 407 280 407 316 407 c 0,23,12
 353 407 353 407 375 435.5 c 128,-1,13
EndSplineSet
EndChar
StartChar: guillemotright
Encoding: 187 187 281
Width: 632
GlyphClass: 1
Flags: W
LayerCount: 2
Fore
SplineSet
433 250 m 1,0,-1
 284 460 l 1,1,-1
 426 460 l 1,2,-1
 574 250 l 1,3,-1
 426 40 l 1,4,-1
 284 40 l 1,5,-1
 433 250 l 1,0,-1
206 250 m 1,6,-1
 57 460 l 1,7,-1
 199 460 l 1,8,-1
 347 250 l 1,9,-1
 199 40 l 1,10,-1
 57 40 l 1,11,-1
 206 250 l 1,6,-1
EndSplineSet
EndChar
StartChar: onequarter
Encoding: 188 188 242
Width: 632
GlyphClass: 3
Flags: W
LayerCount: 2
Fore
SplineSet
124 562 m 1,0,-1
 55 562 l 1,1,-1
 55 632 l 1,2,3
 96 631 96 631 115 639 c 128,-1,4
 134 647 134 647 142 668 c 1,5,-1
 206 668 l 1,6,-1
 206 360 l 1,7,-1
 124 360 l 1,8,-1
 124 562 l 1,0,-1
446 668 m 1,9,-1
 542 668 l 1,10,-1
 180 0 l 1,11,-1
 84 0 l 1,12,-1
 446 668 l 1,9,-1
472 60 m 1,13,-1
 317 60 l 1,14,-1
 317 125 l 1,15,-1
 465 308 l 1,16,-1
 549 308 l 1,17,-1
 549 129 l 1,18,-1
 595 129 l 1,19,-1
 595 60 l 1,20,-1
 549 60 l 1,21,-1
 549 0 l 1,22,-1
 472 0 l 1,23,-1
 472 60 l 1,13,-1
473 129 m 1,24,-1
 473 217 l 1,25,-1
 471 217 l 1,26,-1
 401 129 l 1,27,-1
 473 129 l 1,24,-1
EndSplineSet
Ligature2: "'frac' Diagonal Fractions in Latin lookup 7 subtable" one slash four
EndChar
StartChar: onehalf
Encoding: 189 189 241
Width: 632
GlyphClass: 3
Flags: W
LayerCount: 2
Fore
SplineSet
103 562 m 1,0,-1
 34 562 l 1,1,-1
 34 632 l 1,2,3
 75 631 75 631 94 639 c 128,-1,4
 113 647 113 647 121 668 c 1,5,-1
 185 668 l 1,6,-1
 185 360 l 1,7,-1
 103 360 l 1,8,-1
 103 562 l 1,0,-1
425 668 m 1,9,-1
 521 668 l 1,10,-1
 159 0 l 1,11,-1
 63 0 l 1,12,-1
 425 668 l 1,9,-1
478 158.5 m 128,-1,14
 513 191 513 191 513 217 c 0,15,16
 513 233 513 233 503 241.5 c 128,-1,17
 493 250 493 250 475 250 c 0,18,19
 458 250 458 250 446.5 241 c 128,-1,20
 435 232 435 232 431 216 c 1,21,-1
 359 237 l 1,22,23
 390 312 390 312 481 312 c 0,24,25
 532 312 532 312 563.5 288.5 c 128,-1,26
 595 265 595 265 595 226 c 0,27,28
 595 184 595 184 566 150 c 128,-1,29
 537 116 537 116 474 71 c 1,30,-1
 595 71 l 1,31,-1
 595 0 l 1,32,-1
 350 0 l 1,33,-1
 350 65 l 1,34,13
 443 126 443 126 478 158.5 c 128,-1,14
EndSplineSet
Ligature2: "'frac' Diagonal Fractions in Latin lookup 7 subtable" one slash two
EndChar
StartChar: Aring
Encoding: 197 197 10
Width: 632
GlyphClass: 2
Flags: W
AnchorPoint: "Anchor-2" 600 10 basechar 0
AnchorPoint: "Anchor-1" 316 854 basechar 0
AnchorPoint: "Anchor-0" 316 0 basechar 0
LayerCount: 2
Fore
SplineSet
206.5 681 m 128,-1,1
 194 705 194 705 194 733 c 0,2,3
 194 783 194 783 229.5 818.5 c 128,-1,4
 265 854 265 854 315 854 c 256,5,6
 365 854 365 854 401.5 818.5 c 128,-1,7
 438 783 438 783 438 733 c 0,8,9
 438 706 438 706 426 681.5 c 128,-1,10
 414 657 414 657 393 641 c 1,11,-1
 600 0 l 1,12,-1
 479 0 l 1,13,-1
 438 134 l 1,14,-1
 189 134 l 1,15,-1
 148 0 l 1,16,-1
 32 0 l 1,17,-1
 240 641 l 1,18,0
 219 657 219 657 206.5 681 c 128,-1,1
408 238 m 1,19,-1
 315 536 l 1,20,-1
 311 536 l 1,21,-1
 218 238 l 1,22,-1
 408 238 l 1,19,-1
351 697.5 m 128,-1,24
 365 712 365 712 365 732 c 0,25,26
 365 753 365 753 351 767.5 c 128,-1,27
 337 782 337 782 316 782 c 0,28,29
 296 782 296 782 281.5 767.5 c 128,-1,30
 267 753 267 753 267 732 c 0,31,32
 267 712 267 712 281.5 697.5 c 128,-1,33
 296 683 296 683 316 683 c 0,34,23
 337 683 337 683 351 697.5 c 128,-1,24
EndSplineSet
EndChar
StartChar: AE
Encoding: 198 198 12
Width: 632
GlyphClass: 2
Flags: W
AnchorPoint: "Anchor-1" 336 668 basechar 0
AnchorPoint: "Anchor-0" 336 0 basechar 0
LayerCount: 2
Fore
SplineSet
243 668 m 1,0,-1
 624 668 l 1,1,-1
 624 568 l 1,2,-1
 411 568 l 1,3,-1
 411 393 l 1,4,-1
 546 393 l 1,5,-1
 546 294 l 1,6,-1
 411 294 l 1,7,-1
 411 100 l 1,8,-1
 625 100 l 1,9,-1
 625 0 l 1,10,-1
 308 0 l 1,11,-1
 308 140 l 1,12,-1
 160 140 l 1,13,-1
 112 0 l 1,14,-1
 5 0 l 1,15,-1
 243 668 l 1,0,-1
308 232 m 1,16,-1
 308 563 l 1,17,-1
 304 563 l 1,18,-1
 190 232 l 1,19,-1
 308 232 l 1,16,-1
EndSplineSet
EndChar
StartChar: Ccedilla
Encoding: 199 199 17
Width: 632
GlyphClass: 2
Flags: W
AnchorPoint: "Anchor-1" 338 668 basechar 0
LayerCount: 2
Fore
SplineSet
241 -168 m 1,1,-1
 257 -125 l 1,2,3
 282 -139 282 -139 320 -139 c 0,4,5
 340 -139 340 -139 352.5 -131 c 128,-1,6
 365 -123 365 -123 365 -110 c 256,7,8
 365 -97 365 -97 354.5 -89.5 c 128,-1,9
 344 -82 344 -82 326 -82 c 0,10,11
 320 -82 320 -82 306 -85 c 128,-1,12
 292 -88 292 -88 288 -88 c 0,13,14
 280 -88 280 -88 275.5 -83 c 128,-1,15
 271 -78 271 -78 271 -71 c 0,16,17
 271 -63 271 -63 275 -58 c 2,18,-1
 303 -10 l 1,19,20
 227 -2 227 -2 170.5 42.5 c 128,-1,21
 114 87 114 87 83.5 162.5 c 128,-1,22
 53 238 53 238 53 335 c 0,23,24
 53 438 53 438 88.5 516 c 128,-1,25
 124 594 124 594 189 637 c 128,-1,26
 254 680 254 680 340 680 c 0,27,28
 419 680 419 680 481.5 639 c 128,-1,29
 544 598 544 598 576 524 c 1,30,-1
 473 486 l 1,31,32
 455 530 455 530 421.5 553.5 c 128,-1,33
 388 577 388 577 342 577 c 256,34,35
 296 577 296 577 258.5 548 c 128,-1,36
 221 519 221 519 199.5 464.5 c 128,-1,37
 178 410 178 410 178 335 c 0,38,39
 178 258 178 258 200 203 c 128,-1,40
 222 148 222 148 260 119.5 c 128,-1,41
 298 91 298 91 345 91 c 0,42,43
 387 91 387 91 423 113.5 c 128,-1,44
 459 136 459 136 479 181 c 1,45,-1
 579 144 l 1,46,47
 546 73 546 73 488 33 c 128,-1,48
 430 -7 430 -7 354 -11 c 1,49,-1
 331 -49 l 1,50,51
 344 -45 344 -45 364 -45 c 0,52,53
 396 -45 396 -45 420 -60.5 c 128,-1,54
 444 -76 444 -76 444 -105 c 0,55,56
 444 -141 444 -141 410 -162.5 c 128,-1,57
 376 -184 376 -184 327 -184 c 0,58,0
 282 -184 282 -184 241 -168 c 1,1,-1
EndSplineSet
EndChar
StartChar: Oslash
Encoding: 216 216 68
Width: 632
GlyphClass: 2
Flags: W
AnchorPoint: "Anchor-3" 614 668 basechar 0
AnchorPoint: "Anchor-2" 568 10 basechar 0
AnchorPoint: "Anchor-1" 317 668 basechar 0
AnchorPoint: "Anchor-0" 317 0 basechar 0
LayerCount: 2
Fore
SplineSet
149 46 m 1,1,-1
 109 -9 l 1,2,-1
 57 28 l 1,3,-1
 105 93 l 1,4,5
 38 184 38 184 38 334 c 0,6,7
 38 438 38 438 71.5 516 c 128,-1,8
 105 594 105 594 168 637 c 128,-1,9
 231 680 231 680 316 680 c 0,10,11
 414 680 414 680 483 622 c 1,12,-1
 523 676 l 1,13,-1
 576 639 l 1,14,-1
 528 574 l 1,15,16
 594 482 594 482 594 334 c 0,17,18
 594 230 594 230 560.5 152 c 128,-1,19
 527 74 527 74 464 31 c 128,-1,20
 401 -12 401 -12 316 -12 c 0,21,0
 216 -12 216 -12 149 46 c 1,1,-1
426.5 154 m 128,-1,23
 468 217 468 217 468 334 c 0,24,25
 468 406 468 406 449 460 c 1,26,-1
 215 140 l 1,27,28
 255 91 255 91 316 91 c 0,29,22
 385 91 385 91 426.5 154 c 128,-1,23
316 577 m 0,31,32
 247 577 247 577 205.5 514 c 128,-1,33
 164 451 164 451 164 334 c 0,34,35
 164 260 164 260 184 208 c 1,36,-1
 417 528 l 1,37,30
 377 577 377 577 316 577 c 0,31,32
EndSplineSet
EndChar
StartChar: germandbls
Encoding: 223 223 193
Width: 632
GlyphClass: 1
Flags: W
LayerCount: 2
Fore
SplineSet
300 -10 m 1,1,-1
 267 98 l 1,2,3
 299 90 299 90 333 90 c 0,4,5
 398 90 398 90 437 119 c 128,-1,6
 476 148 476 148 476 209 c 0,7,8
 476 274 476 274 427.5 310 c 128,-1,9
 379 346 379 346 302 346 c 2,10,-1
 289 346 l 1,11,-1
 289 445 l 1,12,13
 348 444 348 444 377 463.5 c 128,-1,14
 406 483 406 483 406 517 c 0,15,16
 406 547 406 547 379.5 566.5 c 128,-1,17
 353 586 353 586 306 586 c 0,18,19
 247 586 247 586 219.5 555 c 128,-1,20
 192 524 192 524 192 457 c 2,21,-1
 192 0 l 1,22,-1
 67 0 l 1,23,-1
 67 463 l 2,24,25
 67 680 67 680 304 680 c 0,26,27
 396 680 396 680 454 637 c 128,-1,28
 512 594 512 594 512 521 c 0,29,30
 512 483 512 483 495 453 c 128,-1,31
 478 423 478 423 450 406 c 1,32,33
 518 389 518 389 560.5 335.5 c 128,-1,34
 603 282 603 282 603 207 c 0,35,36
 603 96 603 96 534 41.5 c 128,-1,37
 465 -13 465 -13 353 -13 c 0,38,0
 327 -13 327 -13 300 -10 c 1,1,-1
EndSplineSet
EndChar
StartChar: ae
Encoding: 230 230 122
Width: 632
GlyphClass: 2
Flags: W
AnchorPoint: "Anchor-1" 315 496 basechar 0
AnchorPoint: "Anchor-0" 315 0 basechar 0
LayerCount: 2
Fore
SplineSet
52 26 m 128,-1,1
 14 64 14 64 14 128 c 0,2,3
 14 207 14 207 71.5 246.5 c 128,-1,4
 129 286 129 286 258 293 c 1,5,-1
 258 324 l 2,6,7
 258 424 258 424 189 424 c 0,8,9
 162 424 162 424 143 406.5 c 128,-1,10
 124 389 124 389 116 356 c 1,11,-1
 36 392 l 1,12,13
 55 446 55 446 96 477.5 c 128,-1,14
 137 509 137 509 195 509 c 0,15,16
 284 509 284 509 318 435 c 1,17,18
 339 471 339 471 371.5 490 c 128,-1,19
 404 509 404 509 446 509 c 0,20,21
 529 509 529 509 574.5 437.5 c 128,-1,22
 620 366 620 366 620 251 c 0,23,24
 620 231 620 231 619 220 c 1,25,-1
 341 220 l 1,26,27
 344 146 344 146 373.5 109 c 128,-1,28
 403 72 403 72 444 72 c 0,29,30
 496 72 496 72 523 125 c 1,31,-1
 601 96 l 1,32,33
 573 44 573 44 532 16 c 128,-1,34
 491 -12 491 -12 441 -12 c 0,35,36
 390 -12 390 -12 352.5 11.5 c 128,-1,37
 315 35 315 35 293 78 c 1,38,39
 251 -12 251 -12 152 -12 c 0,40,0
 90 -12 90 -12 52 26 c 128,-1,1
233 101.5 m 128,-1,42
 257 132 257 132 258 199 c 2,43,-1
 258 220 l 1,44,45
 172 216 172 216 139 195.5 c 128,-1,46
 106 175 106 175 106 135 c 0,47,48
 106 107 106 107 123 89 c 128,-1,49
 140 71 140 71 169 71 c 0,50,41
 209 71 209 71 233 101.5 c 128,-1,42
500 386.5 m 128,-1,52
 479 422 479 422 437 422 c 0,53,54
 400 422 400 422 375 390.5 c 128,-1,55
 350 359 350 359 342 293 c 1,56,-1
 522 293 l 1,57,51
 521 351 521 351 500 386.5 c 128,-1,52
EndSplineSet
EndChar
StartChar: ccedilla
Encoding: 231 231 127
Width: 632
GlyphClass: 2
Flags: W
AnchorPoint: "Anchor-1" 349 496 basechar 0
LayerCount: 2
Fore
SplineSet
246 -168 m 1,1,-1
 262 -125 l 1,2,3
 287 -139 287 -139 325 -139 c 0,4,5
 345 -139 345 -139 357.5 -131 c 128,-1,6
 370 -123 370 -123 370 -110 c 256,7,8
 370 -97 370 -97 359.5 -89.5 c 128,-1,9
 349 -82 349 -82 330 -82 c 0,10,11
 324 -82 324 -82 310.5 -85 c 128,-1,12
 297 -88 297 -88 293 -88 c 0,13,14
 285 -88 285 -88 280 -83 c 128,-1,15
 275 -78 275 -78 275 -71 c 0,16,17
 275 -66 275 -66 279 -58 c 2,18,-1
 308 -11 l 1,19,20
 201 -1 201 -1 141 69.5 c 128,-1,21
 81 140 81 140 81 249 c 0,22,23
 81 324 81 324 114 383.5 c 128,-1,24
 147 443 147 443 206.5 476 c 128,-1,25
 266 509 266 509 342 509 c 0,26,27
 419 509 419 509 478 477.5 c 128,-1,28
 537 446 537 446 567 385 c 1,29,-1
 462 347 l 1,30,31
 448 378 448 378 419 395 c 128,-1,32
 390 412 390 412 349 412 c 0,33,34
 290 412 290 412 249 371.5 c 128,-1,35
 208 331 208 331 208 249 c 256,36,37
 208 167 208 167 249 126.5 c 128,-1,38
 290 86 290 86 348 86 c 0,39,40
 387 86 387 86 418 101 c 128,-1,41
 449 116 449 116 464 142 c 1,42,-1
 567 104 l 1,43,44
 539 55 539 55 484 24 c 128,-1,45
 429 -7 429 -7 359 -11 c 1,46,-1
 336 -49 l 1,47,48
 349 -45 349 -45 369 -45 c 0,49,50
 401 -45 401 -45 424.5 -60.5 c 128,-1,51
 448 -76 448 -76 448 -105 c 0,52,53
 448 -141 448 -141 414.5 -162.5 c 128,-1,54
 381 -184 381 -184 332 -184 c 0,55,0
 287 -184 287 -184 246 -168 c 1,1,-1
EndSplineSet
EndChar
StartChar: thorn
Encoding: 254 254 183
Width: 632
GlyphClass: 2
Flags: W
AnchorPoint: "Anchor-1" 315 496 basechar 0
AnchorPoint: "Anchor-0" 315 0 basechar 0
LayerCount: 2
Fore
SplineSet
75 708 m 1,0,-1
 199 708 l 1,1,-1
 199 421 l 1,2,3
 224 462 224 462 268.5 485.5 c 128,-1,4
 313 509 313 509 361 509 c 0,5,6
 428 509 428 509 479 477 c 128,-1,7
 530 445 530 445 558 385.5 c 128,-1,8
 586 326 586 326 586 247 c 0,9,10
 586 167 586 167 558 108.5 c 128,-1,11
 530 50 530 50 479 19 c 128,-1,12
 428 -12 428 -12 361 -12 c 0,13,14
 313 -12 313 -12 268.5 12 c 128,-1,15
 224 36 224 36 199 75 c 1,16,-1
 199 -162 l 1,17,-1
 75 -162 l 1,18,-1
 75 708 l 1,0,-1
421 128.5 m 128,-1,20
 458 171 458 171 458 247 c 256,21,22
 458 323 458 323 421 367 c 128,-1,23
 384 411 384 411 326 411 c 0,24,25
 267 411 267 411 230.5 370 c 128,-1,26
 194 329 194 329 194 250 c 0,27,28
 194 170 194 170 230.5 128 c 128,-1,29
 267 86 267 86 326 86 c 0,30,19
 384 86 384 86 421 128.5 c 128,-1,20
EndSplineSet
EndChar
StartChar: aogonek
Encoding: 261 261 119
Width: 632
GlyphClass: 2
Flags: W
AnchorPoint: "Anchor-1" 314 496 basechar 0
LayerCount: 2
Fore
SplineSet
381.5 -148 m 128,-1,1
 351 -123 351 -123 351 -88 c 256,2,3
 351 -53 351 -53 372.5 -30 c 128,-1,4
 394 -7 394 -7 432 11 c 1,5,-1
 416 67 l 1,6,7
 367 -12 367 -12 242 -12 c 0,8,9
 165 -12 165 -12 116.5 26 c 128,-1,10
 68 64 68 64 68 130 c 0,11,12
 68 217 68 217 152.5 259.5 c 128,-1,13
 237 302 237 302 411 312 c 1,14,-1
 411 324 l 2,15,16
 411 424 411 424 307 424 c 0,17,18
 267 424 267 424 239.5 405 c 128,-1,19
 212 386 212 386 204 355 c 1,20,-1
 97 391 l 1,21,22
 120 445 120 445 177 477 c 128,-1,23
 234 509 234 509 313 509 c 0,24,25
 529 509 529 509 529 313 c 2,26,-1
 529 188 l 2,27,28
 529 65 529 65 547 0 c 1,29,30
 502 -10 502 -10 478 -30 c 128,-1,31
 454 -50 454 -50 454 -72 c 0,32,33
 454 -90 454 -90 468 -98.5 c 128,-1,34
 482 -107 482 -107 502 -107 c 0,35,36
 520 -107 520 -107 547 -98 c 1,37,-1
 547 -164 l 1,38,39
 523 -173 523 -173 477 -173 c 0,40,0
 412 -173 412 -173 381.5 -148 c 128,-1,1
411 201 m 2,42,-1
 411 236 l 1,43,44
 300 228 300 228 247.5 206 c 128,-1,45
 195 184 195 184 195 140 c 0,46,47
 195 110 195 110 218.5 91.5 c 128,-1,48
 242 73 242 73 282 73 c 0,49,41
 411 73 411 73 411 201 c 2,42,-1
EndSplineSet
EndChar
StartChar: Eogonek
Encoding: 280 280 31
Width: 632
GlyphClass: 2
Flags: W
AnchorPoint: "Anchor-1" 287 668 basechar 0
LayerCount: 2
Fore
SplineSet
106 668 m 1,0,-1
 551 668 l 1,1,-1
 551 555 l 1,2,-1
 234 555 l 1,3,-1
 234 400 l 1,4,-1
 445 400 l 1,5,-1
 445 288 l 1,6,-1
 234 288 l 1,7,-1
 234 113 l 1,8,-1
 555 113 l 1,9,-1
 555 0 l 1,10,11
 521 -6 521 -6 492 -26.5 c 128,-1,12
 463 -47 463 -47 463 -71 c 0,13,14
 463 -89 463 -89 476 -98 c 128,-1,15
 489 -107 489 -107 508 -107 c 0,16,17
 528 -107 528 -107 555 -98 c 1,18,-1
 555 -164 l 1,19,20
 531 -173 531 -173 485 -173 c 0,21,22
 420 -173 420 -173 389.5 -148 c 128,-1,23
 359 -123 359 -123 359 -88 c 0,24,25
 359 -34 359 -34 423 0 c 1,26,-1
 106 0 l 1,27,-1
 106 668 l 1,0,-1
EndSplineSet
EndChar
StartChar: eogonek
Encoding: 281 281 141
Width: 632
GlyphClass: 2
Flags: W
AnchorPoint: "Anchor-1" 261 496 basechar 0
LayerCount: 2
Fore
SplineSet
331.5 -148 m 128,-1,1
 301 -123 301 -123 301 -86 c 0,2,3
 301 -41 301 -41 334 -10 c 1,4,5
 256 -12 256 -12 195 18.5 c 128,-1,6
 134 49 134 49 100 108.5 c 128,-1,7
 66 168 66 168 66 249 c 0,8,9
 66 327 66 327 100 386 c 128,-1,10
 134 445 134 445 193 477 c 128,-1,11
 252 509 252 509 324 509 c 0,12,13
 403 509 403 509 461 471 c 128,-1,14
 519 433 519 433 548 367 c 128,-1,15
 577 301 577 301 571 219 c 1,16,-1
 188 219 l 1,17,18
 195 150 195 150 235.5 118 c 128,-1,19
 276 86 276 86 332 86 c 0,20,21
 403 86 403 86 440 131 c 1,22,-1
 541 94 l 1,23,24
 515 54 515 54 460 18 c 0,25,26
 435 2 435 2 419.5 -19 c 128,-1,27
 404 -40 404 -40 404 -64 c 0,28,29
 404 -85 404 -85 418 -96 c 128,-1,30
 432 -107 432 -107 453 -107 c 0,31,32
 472 -107 472 -107 497 -98 c 1,33,-1
 497 -163 l 1,34,35
 474 -173 474 -173 427 -173 c 0,36,0
 362 -173 362 -173 331.5 -148 c 128,-1,1
417 381.5 m 128,-1,38
 383 415 383 415 327 415 c 0,39,40
 273 415 273 415 235.5 386.5 c 128,-1,41
 198 358 198 358 188 297 c 1,42,-1
 454 297 l 1,43,37
 451 348 451 348 417 381.5 c 128,-1,38
EndSplineSet
EndChar
StartChar: Iogonek
Encoding: 302 302 47
Width: 632
GlyphClass: 2
Flags: W
AnchorPoint: "Anchor-1" 316 668 basechar 0
LayerCount: 2
Fore
SplineSet
121 94 m 1,0,-1
 252 94 l 1,1,-1
 252 574 l 1,2,-1
 121 574 l 1,3,-1
 121 668 l 1,4,-1
 511 668 l 1,5,-1
 511 574 l 1,6,-1
 380 574 l 1,7,-1
 380 94 l 1,8,-1
 511 94 l 1,9,-1
 511 0 l 1,10,11
 477 -6 477 -6 448 -26.5 c 128,-1,12
 419 -47 419 -47 419 -71 c 0,13,14
 419 -89 419 -89 431.5 -98 c 128,-1,15
 444 -107 444 -107 464 -107 c 256,16,17
 484 -107 484 -107 511 -98 c 1,18,-1
 511 -164 l 1,19,20
 486 -173 486 -173 441 -173 c 0,21,22
 376 -173 376 -173 345.5 -148 c 128,-1,23
 315 -123 315 -123 315 -88 c 0,24,25
 315 -34 315 -34 379 0 c 1,26,-1
 121 0 l 1,27,-1
 121 94 l 1,0,-1
EndSplineSet
EndChar
StartChar: iogonek
Encoding: 303 303 156
Width: 632
GlyphClass: 2
Flags: W
AnchorPoint: "Anchor-1" 326 741 basechar 0
LayerCount: 2
Fore
SplineSet
105 95 m 1,0,-1
 273 95 l 1,1,-1
 273 401 l 1,2,-1
 130 401 l 1,3,-1
 130 496 l 1,4,-1
 398 496 l 1,5,-1
 398 95 l 1,6,-1
 567 95 l 1,7,-1
 567 0 l 1,8,9
 521 -10 521 -10 497.5 -30 c 128,-1,10
 474 -50 474 -50 474 -72 c 0,11,12
 474 -90 474 -90 488 -98.5 c 128,-1,13
 502 -107 502 -107 522 -107 c 0,14,15
 540 -107 540 -107 567 -98 c 1,16,-1
 567 -164 l 1,17,18
 542 -173 542 -173 497 -173 c 0,19,20
 432 -173 432 -173 401.5 -148 c 128,-1,21
 371 -123 371 -123 371 -88 c 0,22,23
 371 -35 371 -35 430 0 c 1,24,-1
 105 0 l 1,25,-1
 105 95 l 1,0,-1
270.5 607 m 128,-1,27
 248 630 248 630 248 662 c 256,28,29
 248 694 248 694 270.5 717 c 128,-1,30
 293 740 293 740 326 740 c 0,31,32
 358 740 358 740 381 717 c 128,-1,33
 404 694 404 694 404 662 c 256,34,35
 404 630 404 630 381 607 c 128,-1,36
 358 584 358 584 326 584 c 0,37,26
 293 584 293 584 270.5 607 c 128,-1,27
EndSplineSet
EndChar
StartChar: lslash
Encoding: 322 322 166
Width: 632
GlyphClass: 1
Flags: W
LayerCount: 2
Fore
SplineSet
261 10.5 m 128,-1,1
 230 21 230 21 216.5 48 c 128,-1,2
 203 75 203 75 203 127 c 2,3,-1
 203 259 l 1,4,-1
 145 225 l 1,5,-1
 145 320 l 1,6,-1
 203 355 l 1,7,-1
 203 613 l 1,8,-1
 88 613 l 1,9,-1
 88 708 l 1,10,-1
 328 708 l 1,11,-1
 328 424 l 1,12,-1
 442 489 l 1,13,-1
 442 394 l 1,14,-1
 328 328 l 1,15,-1
 328 159 l 2,16,17
 328 133 328 133 332.5 121 c 128,-1,18
 337 109 337 109 349.5 104.5 c 128,-1,19
 362 100 362 100 388 100 c 2,20,-1
 564 100 l 1,21,-1
 564 0 l 1,22,-1
 349 0 l 2,23,0
 292 0 292 0 261 10.5 c 128,-1,1
EndSplineSet
EndChar
StartChar: OE
Encoding: 338 338 70
Width: 632
GlyphClass: 2
Flags: W
AnchorPoint: "Anchor-1" 317 668 basechar 0
AnchorPoint: "Anchor-0" 317 0 basechar 0
LayerCount: 2
Fore
SplineSet
59 80 m 128,-1,1
 6 172 6 172 6 334 c 0,2,3
 6 497 6 497 59 588.5 c 128,-1,4
 112 680 112 680 208 680 c 0,5,6
 282 680 282 680 330 615 c 1,7,-1
 330 668 l 1,8,-1
 624 668 l 1,9,-1
 624 568 l 1,10,-1
 428 568 l 1,11,-1
 428 393 l 1,12,-1
 548 393 l 1,13,-1
 548 294 l 1,14,-1
 428 294 l 1,15,-1
 428 100 l 1,16,-1
 626 100 l 1,17,-1
 626 0 l 1,18,-1
 330 0 l 1,19,-1
 330 52 l 1,20,21
 282 -12 282 -12 207 -12 c 0,22,0
 112 -12 112 -12 59 80 c 128,-1,1
300.5 142 m 128,-1,24
 330 202 330 202 330 335 c 0,25,26
 330 467 330 467 300.5 526.5 c 128,-1,27
 271 586 271 586 221 586 c 0,28,29
 172 586 172 586 143 526.5 c 128,-1,30
 114 467 114 467 114 335 c 256,31,32
 114 203 114 203 143 142.5 c 128,-1,33
 172 82 172 82 221 82 c 0,34,23
 271 82 271 82 300.5 142 c 128,-1,24
EndSplineSet
EndChar
StartChar: oe
Encoding: 339 339 181
Width: 632
GlyphClass: 2
Flags: W
AnchorPoint: "Anchor-1" 313 496 basechar 0
AnchorPoint: "Anchor-0" 313 0 basechar 0
LayerCount: 2
Fore
SplineSet
315 75 m 1,1,2
 293 32 293 32 259 10 c 128,-1,3
 225 -12 225 -12 186 -12 c 0,4,5
 138 -12 138 -12 98.5 17 c 128,-1,6
 59 46 59 46 36 104.5 c 128,-1,7
 13 163 13 163 13 250 c 0,8,9
 13 336 13 336 36.5 394.5 c 128,-1,10
 60 453 60 453 99.5 481 c 128,-1,11
 139 509 139 509 188 509 c 0,12,13
 230 509 230 509 265 486.5 c 128,-1,14
 300 464 300 464 323 419 c 1,15,16
 343 463 343 463 377.5 486 c 128,-1,17
 412 509 412 509 457 509 c 0,18,19
 538 509 538 509 583 437.5 c 128,-1,20
 628 366 628 366 628 252 c 0,21,22
 628 231 628 231 627 220 c 1,23,-1
 363 220 l 1,24,25
 365 146 365 146 392 109 c 128,-1,26
 419 72 419 72 457 72 c 0,27,28
 503 72 503 72 530 123 c 1,29,-1
 608 94 l 1,30,31
 581 43 581 43 541.5 15.5 c 128,-1,32
 502 -12 502 -12 455 -12 c 0,33,0
 361 -12 361 -12 315 75 c 1,1,2
252.5 125.5 m 128,-1,35
 277 169 277 169 277 250 c 0,36,37
 277 330 277 330 252.5 372.5 c 128,-1,38
 228 415 228 415 190 415 c 256,39,40
 152 415 152 415 127.5 372.5 c 128,-1,41
 103 330 103 330 103 250 c 0,42,43
 103 169 103 169 127.5 125.5 c 128,-1,44
 152 82 152 82 190 82 c 256,45,34
 228 82 228 82 252.5 125.5 c 128,-1,35
509 386.5 m 128,-1,47
 489 422 489 422 450 422 c 0,48,49
 415 422 415 422 392 390.5 c 128,-1,50
 369 359 369 359 363 293 c 1,51,-1
 530 293 l 1,52,46
 529 351 529 351 509 386.5 c 128,-1,47
EndSplineSet
EndChar
StartChar: Scedilla
Encoding: 350 350 80
Width: 632
GlyphClass: 2
Flags: W
AnchorPoint: "Anchor-1" 316 668 basechar 0
LayerCount: 2
Fore
SplineSet
220 -168 m 1,1,-1
 236 -125 l 1,2,3
 259 -139 259 -139 299 -139 c 0,4,5
 319 -139 319 -139 331 -131 c 128,-1,6
 343 -123 343 -123 343 -110 c 256,7,8
 343 -97 343 -97 333 -89.5 c 128,-1,9
 323 -82 323 -82 304 -82 c 0,10,11
 298 -82 298 -82 284.5 -85 c 128,-1,12
 271 -88 271 -88 267 -88 c 0,13,14
 259 -88 259 -88 254 -83 c 128,-1,15
 249 -78 249 -78 249 -71 c 0,16,17
 249 -66 249 -66 253 -58 c 2,18,-1
 282 -10 l 1,19,20
 200 -2 200 -2 138.5 39.5 c 128,-1,21
 77 81 77 81 51 152 c 1,22,-1
 170 195 l 1,23,24
 183 147 183 147 225 119.5 c 128,-1,25
 267 92 267 92 321 92 c 0,26,27
 374 92 374 92 412.5 117.5 c 128,-1,28
 451 143 451 143 451 189 c 0,29,30
 451 225 451 225 422 247 c 128,-1,31
 393 269 393 269 326 283 c 2,32,-1
 258 298 l 2,33,34
 67 339 67 339 67 485 c 0,35,36
 67 542 67 542 101.5 586.5 c 128,-1,37
 136 631 136 631 194.5 655.5 c 128,-1,38
 253 680 253 680 322 680 c 0,39,40
 400 680 400 680 465.5 646 c 128,-1,41
 531 612 531 612 560 544 c 1,42,-1
 443 500 l 1,43,44
 427 536 427 536 391.5 556 c 128,-1,45
 356 576 356 576 314 576 c 0,46,47
 263 576 263 576 229.5 553.5 c 128,-1,48
 196 531 196 531 196 490 c 0,49,50
 196 431 196 431 285 411 c 2,51,-1
 361 393 l 2,52,53
 469 370 469 370 524.5 327.5 c 128,-1,54
 580 285 580 285 580 202 c 0,55,56
 580 140 580 140 546.5 92.5 c 128,-1,57
 513 45 513 45 457 18 c 128,-1,58
 401 -9 401 -9 333 -12 c 1,59,-1
 310 -49 l 1,60,61
 322 -45 322 -45 343 -45 c 0,62,63
 375 -45 375 -45 398.5 -60.5 c 128,-1,64
 422 -76 422 -76 422 -105 c 0,65,66
 422 -141 422 -141 388.5 -162.5 c 128,-1,67
 355 -184 355 -184 306 -184 c 0,68,0
 261 -184 261 -184 220 -168 c 1,1,-1
EndSplineSet
Substitution2: "'locl' Localized Forms in Latin lookup 4 subtable" uni0218
AlternateSubs2: "'aalt' Access All Alternates in Latin lookup 0 subtable" uni0218
EndChar
StartChar: scedilla
Encoding: 351 351 191
Width: 632
GlyphClass: 2
Flags: W
AnchorPoint: "Anchor-1" 319 496 basechar 0
LayerCount: 2
Fore
SplineSet
227 -168 m 1,1,-1
 243 -125 l 1,2,3
 268 -139 268 -139 306 -139 c 0,4,5
 326 -139 326 -139 338.5 -131 c 128,-1,6
 351 -123 351 -123 351 -110 c 256,7,8
 351 -97 351 -97 340.5 -89.5 c 128,-1,9
 330 -82 330 -82 311 -82 c 0,10,11
 305 -82 305 -82 291.5 -85 c 128,-1,12
 278 -88 278 -88 274 -88 c 0,13,14
 266 -88 266 -88 261 -83 c 128,-1,15
 256 -78 256 -78 256 -71 c 0,16,17
 256 -66 256 -66 260 -58 c 2,18,-1
 289 -11 l 1,19,20
 215 -5 215 -5 160 27 c 128,-1,21
 105 59 105 59 82 113 c 1,22,-1
 189 153 l 1,23,24
 199 118 199 118 235.5 99 c 128,-1,25
 272 80 272 80 324 80 c 0,26,27
 372 80 372 80 402 96 c 128,-1,28
 432 112 432 112 432 141 c 0,29,30
 432 164 432 164 411 177.5 c 128,-1,31
 390 191 390 191 341 201 c 2,32,-1
 255 217 l 2,33,34
 182 230 182 230 141 264.5 c 128,-1,35
 100 299 100 299 100 356 c 0,36,37
 100 427 100 427 163 468 c 128,-1,38
 226 509 226 509 318 509 c 0,39,40
 394 509 394 509 451.5 481.5 c 128,-1,41
 509 454 509 454 534 399 c 1,42,-1
 428 359 l 1,43,44
 416 388 416 388 387 403 c 128,-1,45
 358 418 358 418 316 418 c 0,46,47
 270 418 270 418 244 403.5 c 128,-1,48
 218 389 218 389 218 363 c 0,49,50
 218 342 218 342 235 330.5 c 128,-1,51
 252 319 252 319 290 311 c 2,52,-1
 380 294 l 2,53,54
 470 277 470 277 510 244.5 c 128,-1,55
 550 212 550 212 550 149 c 0,56,57
 550 76 550 76 491.5 34 c 128,-1,58
 433 -8 433 -8 340 -11 c 1,59,-1
 317 -49 l 1,60,61
 330 -45 330 -45 350 -45 c 0,62,63
 382 -45 382 -45 405.5 -60.5 c 128,-1,64
 429 -76 429 -76 429 -105 c 0,65,66
 429 -141 429 -141 395.5 -162.5 c 128,-1,67
 362 -184 362 -184 313 -184 c 0,68,0
 268 -184 268 -184 227 -168 c 1,1,-1
EndSplineSet
Substitution2: "'locl' Localized Forms in Latin lookup 4 subtable" uni0219
AlternateSubs2: "'aalt' Access All Alternates in Latin lookup 0 subtable" uni0219
EndChar
StartChar: uni0162
Encoding: 354 354 85
Width: 632
GlyphClass: 2
Flags: W
AnchorPoint: "Anchor-1" 316 668 basechar 0
LayerCount: 2
Fore
SplineSet
252 555 m 1,0,-1
 54 555 l 1,1,-1
 54 668 l 1,2,-1
 578 668 l 1,3,-1
 578 555 l 1,4,-1
 380 555 l 1,5,-1
 380 0 l 1,6,-1
 343 0 l 1,7,-1
 312 -49 l 1,8,9
 324 -45 324 -45 345 -45 c 0,10,11
 377 -45 377 -45 400.5 -60.5 c 128,-1,12
 424 -76 424 -76 424 -105 c 0,13,14
 424 -141 424 -141 390.5 -162.5 c 128,-1,15
 357 -184 357 -184 308 -184 c 0,16,17
 263 -184 263 -184 222 -168 c 1,18,-1
 238 -125 l 1,19,20
 261 -139 261 -139 301 -139 c 0,21,22
 321 -139 321 -139 333 -131 c 128,-1,23
 345 -123 345 -123 345 -110 c 256,24,25
 345 -97 345 -97 335 -89.5 c 128,-1,26
 325 -82 325 -82 306 -82 c 0,27,28
 300 -82 300 -82 286.5 -85 c 128,-1,29
 273 -88 273 -88 269 -88 c 0,30,31
 261 -88 261 -88 256 -83 c 128,-1,32
 251 -78 251 -78 251 -71 c 0,33,34
 251 -66 251 -66 255 -58 c 2,35,-1
 291 0 l 1,36,-1
 252 0 l 1,37,-1
 252 555 l 1,0,-1
EndSplineSet
Substitution2: "'locl' Localized Forms in Latin lookup 4 subtable" uni021A
AlternateSubs2: "'aalt' Access All Alternates in Latin lookup 0 subtable" uni021A
EndChar
StartChar: Uogonek
Encoding: 370 370 94
Width: 632
GlyphClass: 2
Flags: W
AnchorPoint: "Anchor-3" 633 668 basechar 0
AnchorPoint: "Anchor-1" 316 668 basechar 0
LayerCount: 2
Fore
SplineSet
337.5 -148 m 128,-1,1
 307 -123 307 -123 307 -86 c 0,2,3
 307 -42 307 -42 339 -10 c 1,4,5
 208 -15 208 -15 135.5 43.5 c 128,-1,6
 63 102 63 102 63 257 c 2,7,-1
 63 668 l 1,8,-1
 192 668 l 1,9,-1
 192 242 l 2,10,11
 192 168 192 168 220.5 130.5 c 128,-1,12
 249 93 249 93 317 93 c 256,13,14
 385 93 385 93 412.5 130 c 128,-1,15
 440 167 440 167 440 242 c 2,16,-1
 440 668 l 1,17,-1
 569 668 l 1,18,-1
 569 258 l 2,19,20
 569 167 569 167 544 108.5 c 128,-1,21
 519 50 519 50 465 18 c 0,22,23
 440 3 440 3 425 -18.5 c 128,-1,24
 410 -40 410 -40 410 -64 c 0,25,26
 410 -85 410 -85 424 -96 c 128,-1,27
 438 -107 438 -107 459 -107 c 0,28,29
 479 -107 479 -107 502 -98 c 1,30,-1
 502 -163 l 1,31,32
 491 -168 491 -168 471 -170.5 c 128,-1,33
 451 -173 451 -173 433 -173 c 0,34,0
 368 -173 368 -173 337.5 -148 c 128,-1,1
EndSplineSet
EndChar
StartChar: florin
Encoding: 402 402 286
Width: 632
GlyphClass: 1
Flags: W
LayerCount: 2
Fore
SplineSet
71 -161 m 1,1,-1
 71 -52 l 1,2,3
 103 -61 103 -61 145 -61 c 0,4,5
 202 -61 202 -61 222.5 -27 c 128,-1,6
 243 7 243 7 243 87 c 2,7,-1
 243 402 l 1,8,-1
 73 402 l 1,9,-1
 73 496 l 1,10,-1
 243 496 l 1,11,-1
 243 574 l 2,12,13
 243 630 243 630 258.5 661.5 c 128,-1,14
 274 693 274 693 309.5 706 c 128,-1,15
 345 719 345 719 409 719 c 2,16,-1
 558 719 l 1,17,-1
 558 620 l 1,18,-1
 424 620 l 2,19,20
 387 620 387 620 376 609.5 c 128,-1,21
 365 599 365 599 365 567 c 2,22,-1
 365 496 l 1,23,-1
 558 496 l 1,24,-1
 558 402 l 1,25,-1
 365 402 l 1,26,-1
 365 42 l 2,27,28
 365 -74 365 -74 315 -123 c 128,-1,29
 265 -172 265 -172 169 -172 c 0,30,0
 121 -172 121 -172 71 -161 c 1,1,-1
EndSplineSet
EndChar
StartChar: gravecomb
Encoding: 768 768 340
Width: 0
GlyphClass: 4
Flags: W
AnchorPoint: "Anchor-5" 366 718 basemark 0
AnchorPoint: "Anchor-5" 366 496 mark 0
AnchorPoint: "Anchor-1" 366 496 mark 0
LayerCount: 2
Fore
SplineSet
229.5 647 m 128,-1,1
 222 659 222 659 222 673 c 0,2,3
 222 692 222 692 235 705 c 128,-1,4
 248 718 248 718 269 718 c 0,5,6
 284 718 284 718 295 710 c 128,-1,7
 306 702 306 702 320 685 c 2,8,-1
 411 573 l 1,9,-1
 316 573 l 1,10,-1
 259 617 l 2,11,0
 237 635 237 635 229.5 647 c 128,-1,1
EndSplineSet
Substitution2: "Single Substitution lookup 12 subtable" gravecomb.case
Substitution2: "'case' Case-Sensitive Forms in Latin lookup 9 subtable" gravecomb.case
AlternateSubs2: "'aalt' Access All Alternates in Latin lookup 0 subtable" gravecomb.case
EndChar
StartChar: acutecomb
Encoding: 769 769 342
Width: 0
GlyphClass: 4
Flags: W
AnchorPoint: "Anchor-5" 266 718 basemark 0
AnchorPoint: "Anchor-5" 266 496 mark 0
AnchorPoint: "Anchor-1" 266 496 mark 0
LayerCount: 2
Fore
SplineSet
338 710.5 m 128,-1,1
 349 718 349 718 364 718 c 0,2,3
 385 718 385 718 398 705 c 128,-1,4
 411 692 411 692 411 673 c 0,5,6
 411 659 411 659 403.5 647 c 128,-1,7
 396 635 396 635 374 617 c 2,8,-1
 316 573 l 1,9,-1
 222 573 l 1,10,-1
 312 685 l 2,11,0
 327 703 327 703 338 710.5 c 128,-1,1
EndSplineSet
Substitution2: "Single Substitution lookup 12 subtable" acutecomb.case
Substitution2: "'case' Case-Sensitive Forms in Latin lookup 9 subtable" acutecomb.case
AlternateSubs2: "'aalt' Access All Alternates in Latin lookup 0 subtable" acutecomb.case
EndChar
StartChar: uni0302
Encoding: 770 770 347
Width: 0
GlyphClass: 4
Flags: W
AnchorPoint: "Anchor-5" 316 713 basemark 0
AnchorPoint: "Anchor-5" 316 496 mark 0
AnchorPoint: "Anchor-1" 316 496 mark 0
LayerCount: 2
Fore
SplineSet
316 713 m 0,1,2
 340 713 340 713 364 692 c 2,3,-1
 490 575 l 1,4,-1
 385 575 l 1,5,-1
 316 635 l 1,6,-1
 248 575 l 1,7,-1
 142 575 l 1,8,-1
 268 692 l 2,9,0
 293 713 293 713 316 713 c 0,1,2
EndSplineSet
Substitution2: "Single Substitution lookup 12 subtable" uni0302.case
Substitution2: "'case' Case-Sensitive Forms in Latin lookup 9 subtable" uni0302.case
AlternateSubs2: "'aalt' Access All Alternates in Latin lookup 0 subtable" uni0302.case
EndChar
StartChar: tildecomb
Encoding: 771 771 355
Width: 0
GlyphClass: 4
Flags: W
AnchorPoint: "Anchor-5" 316 679 basemark 0
AnchorPoint: "Anchor-5" 316 496 mark 0
AnchorPoint: "Anchor-1" 316 496 mark 0
LayerCount: 2
Fore
SplineSet
344.5 577 m 128,-1,1
 327 583 327 583 307 594 c 0,2,3
 279 609 279 609 263 609 c 0,4,5
 246 609 246 609 234 600 c 128,-1,6
 222 591 222 591 219 574 c 1,7,-1
 145 574 l 1,8,9
 154 625 154 625 183 651.5 c 128,-1,10
 212 678 212 678 259 678 c 0,11,12
 280 678 280 678 296 672 c 128,-1,13
 312 666 312 666 331 655 c 0,14,15
 359 638 359 638 379 638 c 0,16,17
 392 638 392 638 401.5 643.5 c 128,-1,18
 411 649 411 649 421 661 c 0,19,20
 437 680 437 680 453 680 c 0,21,22
 467 680 467 680 477 670.5 c 128,-1,23
 487 661 487 661 487 646 c 0,24,25
 487 628 487 628 472 610.5 c 128,-1,26
 457 593 457 593 433.5 582 c 128,-1,27
 410 571 410 571 386 571 c 256,28,0
 362 571 362 571 344.5 577 c 128,-1,1
EndSplineSet
Substitution2: "Single Substitution lookup 12 subtable" tildecomb.case
Substitution2: "'case' Case-Sensitive Forms in Latin lookup 9 subtable" tildecomb.case
AlternateSubs2: "'aalt' Access All Alternates in Latin lookup 0 subtable" tildecomb.case
EndChar
StartChar: uni0306
Encoding: 774 774 351
Width: 0
GlyphClass: 4
Flags: W
AnchorPoint: "Anchor-5" 316 684 basemark 0
AnchorPoint: "Anchor-5" 316 496 mark 0
AnchorPoint: "Anchor-1" 316 496 mark 0
LayerCount: 2
Fore
SplineSet
223.5 597.5 m 128,-1,1
 188 630 188 630 179 682 c 1,2,-1
 249 682 l 1,3,4
 254 663 254 663 271 649 c 128,-1,5
 288 635 288 635 315 635 c 0,6,7
 343 635 343 635 360.5 649 c 128,-1,8
 378 663 378 663 383 682 c 1,9,-1
 453 682 l 1,10,11
 444 630 444 630 407.5 597.5 c 128,-1,12
 371 565 371 565 315 565 c 256,13,0
 259 565 259 565 223.5 597.5 c 128,-1,1
EndSplineSet
Substitution2: "Single Substitution lookup 12 subtable" uni0306.case
Substitution2: "'case' Case-Sensitive Forms in Latin lookup 9 subtable" uni0306.case
AlternateSubs2: "'aalt' Access All Alternates in Latin lookup 0 subtable" uni0306.case
EndChar
StartChar: uni0308
Encoding: 776 776 335
Width: 0
GlyphClass: 4
Flags: W
AnchorPoint: "Anchor-5" 316 712 basemark 0
AnchorPoint: "Anchor-5" 316 496 mark 0
AnchorPoint: "Anchor-1" 316 496 mark 0
LayerCount: 2
Fore
SplineSet
365.5 599.5 m 128,-1,1
 346 619 346 619 346 646 c 256,2,3
 346 673 346 673 365.5 692.5 c 128,-1,4
 385 712 385 712 413 712 c 0,5,6
 440 712 440 712 459.5 692.5 c 128,-1,7
 479 673 479 673 479 646 c 256,8,9
 479 619 479 619 459.5 599.5 c 128,-1,10
 440 580 440 580 413 580 c 0,11,0
 385 580 385 580 365.5 599.5 c 128,-1,1
172.5 599.5 m 128,-1,13
 153 619 153 619 153 646 c 256,14,15
 153 673 153 673 172.5 692.5 c 128,-1,16
 192 712 192 712 219 712 c 0,17,18
 247 712 247 712 266.5 692.5 c 128,-1,19
 286 673 286 673 286 646 c 256,20,21
 286 619 286 619 266.5 599.5 c 128,-1,22
 247 580 247 580 219 580 c 0,23,12
 192 580 192 580 172.5 599.5 c 128,-1,13
EndSplineSet
Substitution2: "Single Substitution lookup 12 subtable" uni0308.case
Substitution2: "'case' Case-Sensitive Forms in Latin lookup 9 subtable" uni0308.case
AlternateSubs2: "'aalt' Access All Alternates in Latin lookup 0 subtable" uni0308.case
EndChar
StartChar: uni030A
Encoding: 778 778 353
Width: 0
GlyphClass: 4
Flags: W
AnchorPoint: "Anchor-5" 316 786 basemark 0
AnchorPoint: "Anchor-5" 316 496 mark 0
AnchorPoint: "Anchor-1" 316 496 mark 0
LayerCount: 2
Fore
SplineSet
232 584.5 m 128,-1,1
 197 619 197 619 197 668 c 256,2,3
 197 717 197 717 232 751.5 c 128,-1,4
 267 786 267 786 316 786 c 256,5,6
 365 786 365 786 400 751.5 c 128,-1,7
 435 717 435 717 435 668 c 256,8,9
 435 619 435 619 400 584.5 c 128,-1,10
 365 550 365 550 316 550 c 256,11,0
 267 550 267 550 232 584.5 c 128,-1,1
351.5 632 m 128,-1,13
 366 647 366 647 366 668 c 256,14,15
 366 689 366 689 351.5 704 c 128,-1,16
 337 719 337 719 316 719 c 0,17,18
 296 719 296 719 281 704 c 128,-1,19
 266 689 266 689 266 668 c 256,20,21
 266 647 266 647 281 632 c 128,-1,22
 296 617 296 617 316 617 c 0,23,12
 337 617 337 617 351.5 632 c 128,-1,13
EndSplineSet
Substitution2: "Single Substitution lookup 12 subtable" uni030A.case
Substitution2: "'case' Case-Sensitive Forms in Latin lookup 9 subtable" uni030A.case
AlternateSubs2: "'aalt' Access All Alternates in Latin lookup 0 subtable" uni030A.case
EndChar
StartChar: uni030B
Encoding: 779 779 344
Width: 0
GlyphClass: 4
Flags: W
AnchorPoint: "Anchor-5" 364 718 basemark 0
AnchorPoint: "Anchor-5" 269 496 mark 0
AnchorPoint: "Anchor-1" 269 496 mark 0
LayerCount: 2
Fore
SplineSet
247 710 m 128,-1,1
 258 718 258 718 273 718 c 0,2,3
 294 718 294 718 307 705 c 128,-1,4
 320 692 320 692 320 674 c 0,5,6
 320 660 320 660 311.5 648 c 128,-1,7
 303 636 303 636 281 618 c 2,8,-1
 224 573 l 1,9,-1
 133 573 l 1,10,-1
 222 685 l 2,11,0
 236 702 236 702 247 710 c 128,-1,1
427 710 m 128,-1,13
 438 718 438 718 453 718 c 0,14,15
 474 718 474 718 487 705 c 128,-1,16
 500 692 500 692 500 674 c 0,17,18
 500 661 500 661 491.5 648.5 c 128,-1,19
 483 636 483 636 461 618 c 2,20,-1
 404 573 l 1,21,-1
 313 573 l 1,22,-1
 402 685 l 2,23,12
 416 702 416 702 427 710 c 128,-1,13
EndSplineSet
Substitution2: "Single Substitution lookup 12 subtable" uni030B.case
Substitution2: "'case' Case-Sensitive Forms in Latin lookup 9 subtable" uni030B.case
AlternateSubs2: "'aalt' Access All Alternates in Latin lookup 0 subtable" uni030B.case
EndChar
StartChar: uni0326
Encoding: 806 806 359
Width: 0
GlyphClass: 4
Flags: W
AnchorPoint: "Anchor-4" 324 -245 basemark 0
AnchorPoint: "Anchor-4" 327 0 mark 0
AnchorPoint: "Anchor-0" 327 0 mark 0
LayerCount: 2
Fore
SplineSet
289 -187.5 m 128,-1,1
 315 -171 315 -171 315 -141 c 0,2,3
 315 -121 315 -121 298.5 -104.5 c 128,-1,4
 282 -88 282 -88 256 -80 c 1,5,-1
 342 -46 l 1,6,7
 413 -80 413 -80 413 -136 c 0,8,9
 413 -183 413 -183 372.5 -213 c 128,-1,10
 332 -243 332 -243 265 -244 c 1,11,-1
 220 -205 l 1,12,0
 263 -204 263 -204 289 -187.5 c 128,-1,1
EndSplineSet
EndChar
StartChar: uni0327
Encoding: 807 807 360
Width: 0
GlyphClass: 4
Flags: W
AnchorPoint: "Anchor-4" 311 -184 basemark 0
AnchorPoint: "Anchor-4" 311 0 mark 0
AnchorPoint: "Anchor-0" 311 0 mark 0
LayerCount: 2
Fore
SplineSet
215 -168 m 1,1,-1
 231 -125 l 1,2,3
 256 -139 256 -139 294 -139 c 0,4,5
 314 -139 314 -139 326.5 -131 c 128,-1,6
 339 -123 339 -123 339 -110 c 256,7,8
 339 -97 339 -97 328.5 -89.5 c 128,-1,9
 318 -82 318 -82 300 -82 c 0,10,11
 294 -82 294 -82 280 -85 c 128,-1,12
 266 -88 266 -88 262 -88 c 0,13,14
 254 -88 254 -88 249.5 -83 c 128,-1,15
 245 -78 245 -78 245 -71 c 0,16,17
 245 -63 245 -63 249 -58 c 2,18,-1
 298 23 l 1,19,-1
 337 2 l 1,20,-1
 305 -49 l 1,21,22
 318 -45 318 -45 338 -45 c 0,23,24
 370 -45 370 -45 394 -60.5 c 128,-1,25
 418 -76 418 -76 418 -105 c 0,26,27
 418 -141 418 -141 384 -162.5 c 128,-1,28
 350 -184 350 -184 301 -184 c 0,29,0
 256 -184 256 -184 215 -168 c 1,1,-1
EndSplineSet
EndChar
StartChar: uni0328
Encoding: 808 808 361
Width: 0
GlyphClass: 4
Flags: W
AnchorPoint: "Anchor-2" 414 10 mark 0
LayerCount: 2
Fore
SplineSet
249 -148 m 128,-1,1
 219 -123 219 -123 219 -88 c 0,2,3
 219 -51 219 -51 244 -26 c 128,-1,4
 269 -1 269 -1 312 17 c 1,5,-1
 414 0 l 1,6,7
 369 -10 369 -10 345 -30 c 128,-1,8
 321 -50 321 -50 321 -72 c 0,9,10
 321 -89 321 -89 335.5 -98 c 128,-1,11
 350 -107 350 -107 369 -107 c 0,12,13
 389 -107 389 -107 414 -98 c 1,14,-1
 414 -164 l 1,15,16
 390 -173 390 -173 344 -173 c 0,17,0
 279 -173 279 -173 249 -148 c 128,-1,1
EndSplineSet
Substitution2: "Single Substitution lookup 12 subtable" uni0328.case
Substitution2: "'case' Case-Sensitive Forms in Latin lookup 9 subtable" uni0328.case
AlternateSubs2: "'aalt' Access All Alternates in Latin lookup 0 subtable" uni0328.case
EndChar
StartChar: uni03A9
Encoding: 937 937 226
Width: 632
GlyphClass: 1
Flags: W
LayerCount: 2
Fore
SplineSet
32 94 m 1,0,-1
 173 94 l 1,1,-1
 173 132 l 1,2,3
 107 170 107 170 67.5 238.5 c 128,-1,4
 28 307 28 307 28 385 c 0,5,6
 28 466 28 466 66.5 533.5 c 128,-1,7
 105 601 105 601 171.5 640.5 c 128,-1,8
 238 680 238 680 316 680 c 256,9,10
 394 680 394 680 460.5 640.5 c 128,-1,11
 527 601 527 601 565.5 533.5 c 128,-1,12
 604 466 604 466 604 385 c 0,13,14
 604 307 604 307 564.5 238.5 c 128,-1,15
 525 170 525 170 459 132 c 1,16,-1
 459 94 l 1,17,-1
 600 94 l 1,18,-1
 600 0 l 1,19,-1
 353 0 l 1,20,-1
 353 201 l 1,21,22
 418 215 418 215 461 268 c 128,-1,23
 504 321 504 321 504 389 c 0,24,25
 504 442 504 442 478.5 487 c 128,-1,26
 453 532 453 532 410 558 c 128,-1,27
 367 584 367 584 316 584 c 256,28,29
 265 584 265 584 222 558 c 128,-1,30
 179 532 179 532 153.5 487 c 128,-1,31
 128 442 128 442 128 389 c 0,32,33
 128 321 128 321 171 268 c 128,-1,34
 214 215 214 215 279 201 c 1,35,-1
 279 0 l 1,36,-1
 32 0 l 1,37,-1
 32 94 l 1,0,-1
EndSplineSet
EndChar
StartChar: uni03BC
Encoding: 956 956 227
Width: 632
GlyphClass: 1
Flags: W
LayerCount: 2
Fore
SplineSet
79 496 m 1,0,-1
 203 496 l 1,1,-1
 203 222 l 2,2,3
 203 155 203 155 220.5 120.5 c 128,-1,4
 238 86 238 86 292 86 c 0,5,6
 344 86 344 86 370.5 121.5 c 128,-1,7
 397 157 397 157 397 231 c 2,8,-1
 397 496 l 1,9,-1
 522 496 l 1,10,-1
 522 161 l 2,11,12
 522 124 522 124 532.5 112.5 c 128,-1,13
 543 101 543 101 576 101 c 2,14,-1
 592 101 l 1,15,-1
 592 0 l 1,16,-1
 528 0 l 2,17,18
 474 0 474 0 447 14.5 c 128,-1,19
 420 29 420 29 410 58 c 1,20,21
 390 23 390 23 359 5.5 c 128,-1,22
 328 -12 328 -12 291 -12 c 0,23,24
 263 -12 263 -12 239.5 -3.5 c 128,-1,25
 216 5 216 5 203 20 c 1,26,-1
 203 -162 l 1,27,-1
 79 -162 l 1,28,-1
 79 496 l 1,0,-1
EndSplineSet
EndChar
StartChar: quoteleft
Encoding: 8216 8216 278
Width: 632
GlyphClass: 1
Flags: W
LayerCount: 2
Fore
SplineSet
250.5 374.5 m 128,-1,1
 224 401 224 401 224 440 c 0,2,3
 224 461 224 461 231 477 c 2,4,-1
 308 672 l 1,5,-1
 390 672 l 1,6,-1
 335 529 l 1,7,8
 366 523 366 523 387 497.5 c 128,-1,9
 408 472 408 472 408 440 c 0,10,11
 408 401 408 401 381 374.5 c 128,-1,12
 354 348 354 348 316 348 c 0,13,0
 277 348 277 348 250.5 374.5 c 128,-1,1
EndSplineSet
EndChar
StartChar: quoteright
Encoding: 8217 8217 279
Width: 632
GlyphClass: 1
Flags: W
LayerCount: 2
Fore
SplineSet
245 530 m 128,-1,1
 224 556 224 556 224 588 c 0,2,3
 224 626 224 626 251 653 c 128,-1,4
 278 680 278 680 316 680 c 0,5,6
 355 680 355 680 381.5 653 c 128,-1,7
 408 626 408 626 408 588 c 0,8,9
 408 566 408 566 401 551 c 2,10,-1
 324 355 l 1,11,-1
 242 355 l 1,12,-1
 297 498 l 1,13,0
 266 504 266 504 245 530 c 128,-1,1
EndSplineSet
EndChar
StartChar: dagger
Encoding: 8224 8224 298
Width: 632
GlyphClass: 1
Flags: W
LayerCount: 2
Fore
SplineSet
257 399 m 1,0,-1
 72 399 l 1,1,-1
 72 496 l 1,2,-1
 257 496 l 1,3,-1
 257 668 l 1,4,-1
 375 668 l 1,5,-1
 375 496 l 1,6,-1
 560 496 l 1,7,-1
 560 399 l 1,8,-1
 375 399 l 1,9,-1
 375 0 l 1,10,-1
 257 0 l 1,11,-1
 257 399 l 1,0,-1
EndSplineSet
EndChar
StartChar: daggerdbl
Encoding: 8225 8225 300
Width: 632
GlyphClass: 1
Flags: W
LayerCount: 2
Fore
SplineSet
258 172 m 1,0,-1
 71 172 l 1,1,-1
 71 272 l 1,2,-1
 258 272 l 1,3,-1
 258 396 l 1,4,-1
 71 396 l 1,5,-1
 71 496 l 1,6,-1
 258 496 l 1,7,-1
 258 668 l 1,8,-1
 374 668 l 1,9,-1
 374 496 l 1,10,-1
 561 496 l 1,11,-1
 561 396 l 1,12,-1
 374 396 l 1,13,-1
 374 272 l 1,14,-1
 561 272 l 1,15,-1
 561 172 l 1,16,-1
 374 172 l 1,17,-1
 374 0 l 1,18,-1
 258 0 l 1,19,-1
 258 172 l 1,0,-1
EndSplineSet
EndChar
StartChar: trademark
Encoding: 8482 8482 294
Width: 632
GlyphClass: 1
Flags: W
LayerCount: 2
Fore
SplineSet
92 604 m 1,0,-1
 7 604 l 1,1,-1
 7 668 l 1,2,-1
 245 668 l 1,3,-1
 245 604 l 1,4,-1
 160 604 l 1,5,-1
 160 343 l 1,6,-1
 92 343 l 1,7,-1
 92 604 l 1,0,-1
278 668 m 1,8,-1
 386 668 l 1,9,-1
 450 440 l 1,10,-1
 454 440 l 1,11,-1
 519 668 l 1,12,-1
 625 668 l 1,13,-1
 625 343 l 1,14,-1
 558 343 l 1,15,-1
 558 587 l 1,16,-1
 554 587 l 1,17,-1
 482 343 l 1,18,-1
 421 343 l 1,19,-1
 348 587 l 1,20,-1
 344 587 l 1,21,-1
 344 343 l 1,22,-1
 278 343 l 1,23,-1
 278 668 l 1,8,-1
EndSplineSet
EndChar
StartChar: estimated
Encoding: 8494 8494 301
Width: 632
GlyphClass: 1
Flags: W
LayerCount: 2
Fore
SplineSet
188.5 21.5 m 128,-1,1
 129 55 129 55 92.5 115.5 c 128,-1,2
 56 176 56 176 56 252 c 0,3,4
 56 318 56 318 90 377 c 128,-1,5
 124 436 124 436 184 471.5 c 128,-1,6
 244 507 244 507 316 507 c 0,7,8
 386 507 386 507 445.5 472 c 128,-1,9
 505 437 505 437 540 377.5 c 128,-1,10
 575 318 575 318 575 248 c 1,11,-1
 180 248 l 1,12,-1
 180 93 l 1,13,14
 206 68 206 68 241.5 54.5 c 128,-1,15
 277 41 277 41 316 41 c 0,16,17
 362 41 362 41 403 60.5 c 128,-1,18
 444 80 444 80 473 115 c 1,19,-1
 526 96 l 1,20,21
 490 46 490 46 435 17 c 128,-1,22
 380 -12 380 -12 316 -12 c 0,23,0
 248 -12 248 -12 188.5 21.5 c 128,-1,1
452 299 m 1,24,-1
 452 402 l 1,25,26
 424 427 424 427 389 440.5 c 128,-1,27
 354 454 354 454 316 454 c 0,28,29
 277 454 277 454 241.5 440.5 c 128,-1,30
 206 427 206 427 180 402 c 1,31,-1
 180 299 l 1,32,-1
 452 299 l 1,24,-1
EndSplineSet
EndChar
StartChar: partialdiff
Encoding: 8706 8706 331
Width: 632
GlyphClass: 1
Flags: W
LayerCount: 2
Fore
SplineSet
189 15 m 128,-1,1
 134 42 134 42 101 96.5 c 128,-1,2
 68 151 68 151 68 229 c 0,3,4
 68 299 68 299 97.5 353.5 c 128,-1,5
 127 408 127 408 177.5 438 c 128,-1,6
 228 468 228 468 290 468 c 0,7,8
 354 468 354 468 398 441 c 128,-1,9
 442 414 442 414 461 369 c 1,10,11
 452 480 452 480 372.5 530.5 c 128,-1,12
 293 581 293 581 177 581 c 0,13,14
 156 581 156 581 146 580 c 1,15,-1
 146 680 l 1,16,17
 344 680 344 680 454 589 c 128,-1,18
 564 498 564 498 564 300 c 0,19,20
 564 148 564 148 497 68 c 128,-1,21
 430 -12 430 -12 310 -12 c 0,22,0
 244 -12 244 -12 189 15 c 128,-1,1
401.5 125 m 128,-1,24
 436 163 436 163 436 227 c 0,25,26
 436 293 436 293 401.5 330.5 c 128,-1,27
 367 368 367 368 314 368 c 256,28,29
 261 368 261 368 226.5 330.5 c 128,-1,30
 192 293 192 293 192 227 c 0,31,32
 192 163 192 163 226.5 125 c 128,-1,33
 261 87 261 87 314 87 c 256,34,23
 367 87 367 87 401.5 125 c 128,-1,24
EndSplineSet
EndChar
StartChar: integral
Encoding: 8747 8747 327
Width: 632
GlyphClass: 1
Flags: W
LayerCount: 2
Fore
SplineSet
149 -151 m 128,-1,1
 122 -129 122 -129 122 -99 c 0,2,3
 122 -74 122 -74 137 -58.5 c 128,-1,4
 152 -43 152 -43 178 -43 c 0,5,6
 203 -43 203 -43 218 -58 c 128,-1,7
 233 -73 233 -73 233 -99 c 0,8,9
 233 -107 233 -107 230 -117 c 1,10,11
 243 -110 243 -110 250 -89.5 c 128,-1,12
 257 -69 257 -69 258 -25 c 2,13,-1
 263 448 l 2,14,15
 267 681 267 681 411 681 c 0,16,17
 457 681 457 681 484 659 c 128,-1,18
 511 637 511 637 511 606 c 0,19,20
 511 581 511 581 496 565.5 c 128,-1,21
 481 550 481 550 455 550 c 0,22,23
 430 550 430 550 415 565.5 c 128,-1,24
 400 581 400 581 400 606 c 0,25,26
 400 616 400 616 403 625 c 1,27,28
 390 618 390 618 383 597.5 c 128,-1,29
 376 577 376 577 375 533 c 2,30,-1
 370 59 l 2,31,32
 366 -173 366 -173 222 -173 c 0,33,0
 176 -173 176 -173 149 -151 c 128,-1,1
EndSplineSet
EndChar
StartChar: approxequal
Encoding: 8776 8776 322
Width: 632
GlyphClass: 1
Flags: W
LayerCount: 2
Fore
SplineSet
122 198.5 m 128,-1,1
 152 235 152 235 212 235 c 0,2,3
 238 235 238 235 262.5 226.5 c 128,-1,4
 287 218 287 218 323 201 c 0,5,6
 351 187 351 187 370.5 180 c 128,-1,7
 390 173 390 173 408 173 c 0,8,9
 457 173 457 173 460 239 c 1,10,-1
 547 209 l 1,11,12
 540 142 540 142 510.5 106 c 128,-1,13
 481 70 481 70 421 70 c 0,14,15
 394 70 394 70 369 78.5 c 128,-1,16
 344 87 344 87 310 103 c 0,17,18
 283 117 283 117 262.5 124 c 128,-1,19
 242 131 242 131 224 131 c 0,20,21
 176 131 176 131 173 65 c 1,22,-1
 86 95 l 1,23,0
 92 162 92 162 122 198.5 c 128,-1,1
122 399 m 128,-1,25
 152 435 152 435 212 435 c 0,26,27
 239 435 239 435 265 426 c 128,-1,28
 291 417 291 417 323 401 c 0,29,30
 352 387 352 387 371 380.5 c 128,-1,31
 390 374 390 374 408 374 c 0,32,33
 457 374 457 374 460 440 c 1,34,-1
 547 410 l 1,35,36
 540 342 540 342 510 306 c 128,-1,37
 480 270 480 270 421 270 c 0,38,39
 395 270 395 270 370.5 278.5 c 128,-1,40
 346 287 346 287 310 304 c 0,41,42
 279 318 279 318 260.5 325 c 128,-1,43
 242 332 242 332 224 332 c 0,44,45
 176 332 176 332 173 266 c 1,46,-1
 86 296 l 1,47,24
 92 363 92 363 122 399 c 128,-1,25
EndSplineSet
EndChar
StartChar: gravecomb.case
Encoding: 65543 -1 341
Width: 0
GlyphClass: 4
Flags: W
AnchorPoint: "Anchor-5" 371 874 basemark 0
AnchorPoint: "Anchor-5" 371 668 mark 0
AnchorPoint: "Anchor-1" 371 668 mark 0
LayerCount: 2
Fore
SplineSet
224 798.5 m 128,-1,1
 216 810 216 810 216 825 c 0,2,3
 216 844 216 844 229 856.5 c 128,-1,4
 242 869 242 869 263 869 c 0,5,6
 276 869 276 869 289 861.5 c 128,-1,7
 302 854 302 854 319 836 c 2,8,-1
 416 733 l 1,9,-1
 315 733 l 1,10,-1
 255 772 l 2,11,0
 232 787 232 787 224 798.5 c 128,-1,1
EndSplineSet
EndChar
StartChar: uni0307.large
Encoding: 65542 -1 339
Width: 0
GlyphClass: 4
Flags: W
AnchorPoint: "Anchor-5" 316 741 basemark 0
AnchorPoint: "Anchor-5" 316 496 mark 0
AnchorPoint: "Anchor-1" 316 496 mark 0
LayerCount: 2
Fore
SplineSet
261 607 m 128,-1,1
 238 630 238 630 238 662 c 256,2,3
 238 694 238 694 261 717 c 128,-1,4
 284 740 284 740 316 740 c 256,5,6
 348 740 348 740 371 717 c 128,-1,7
 394 694 394 694 394 662 c 256,8,9
 394 630 394 630 371 607 c 128,-1,10
 348 584 348 584 316 584 c 256,11,0
 284 584 284 584 261 607 c 128,-1,1
EndSplineSet
EndChar
StartChar: uni030A.case
Encoding: 65550 -1 354
Width: 0
GlyphClass: 4
Flags: W
AnchorPoint: "Anchor-5" 316 854 basemark 0
AnchorPoint: "Anchor-5" 316 668 mark 0
AnchorPoint: "Anchor-1" 316 668 mark 0
LayerCount: 2
Fore
SplineSet
255 627.5 m 128,-1,1
 227 644 227 644 210.5 672 c 128,-1,2
 194 700 194 700 194 733 c 0,3,4
 194 783 194 783 229.5 818.5 c 128,-1,5
 265 854 265 854 315 854 c 256,6,7
 365 854 365 854 401.5 818.5 c 128,-1,8
 438 783 438 783 438 733 c 0,9,10
 438 700 438 700 421.5 672 c 128,-1,11
 405 644 405 644 376.5 627.5 c 128,-1,12
 348 611 348 611 315 611 c 0,13,0
 283 611 283 611 255 627.5 c 128,-1,1
351 697.5 m 128,-1,15
 365 712 365 712 365 732 c 0,16,17
 365 753 365 753 351 767.5 c 128,-1,18
 337 782 337 782 316 782 c 0,19,20
 296 782 296 782 281.5 767.5 c 128,-1,21
 267 753 267 753 267 732 c 0,22,23
 267 712 267 712 281.5 697.5 c 128,-1,24
 296 683 296 683 316 683 c 0,25,14
 337 683 337 683 351 697.5 c 128,-1,15
EndSplineSet
EndChar
StartChar: uni030C.alt
Encoding: 65546 -1 346
Width: 0
GlyphClass: 4
Flags: W
AnchorPoint: "Anchor-3" 237 496 mark 0
LayerCount: 2
Fore
SplineSet
295.5 704.5 m 128,-1,1
 309 718 309 718 329 718 c 0,2,3
 350 718 350 718 363 706 c 128,-1,4
 376 694 376 694 376 674 c 0,5,6
 376 657 376 657 361 623 c 2,7,-1
 323 530 l 1,8,-1
 257 530 l 1,9,-1
 278 665 l 2,10,0
 282 691 282 691 295.5 704.5 c 128,-1,1
EndSplineSet
EndChar
StartChar: zero.zero
Encoding: 65539 -1 239
Width: 632
GlyphClass: 1
Flags: W
LayerCount: 2
Fore
SplineSet
112 79.5 m 128,-1,1
 40 171 40 171 40 335 c 256,2,3
 40 499 40 499 112 590 c 128,-1,4
 184 681 184 681 316 681 c 256,5,6
 448 681 448 681 520 590 c 128,-1,7
 592 499 592 499 592 335 c 256,8,9
 592 171 592 171 520 79.5 c 128,-1,10
 448 -12 448 -12 316 -12 c 256,11,0
 184 -12 184 -12 112 79.5 c 128,-1,1
427.5 143.5 m 128,-1,13
 468 206 468 206 468 336 c 0,14,15
 468 445 468 445 430 516 c 128,-1,16
 392 587 392 587 316 587 c 0,17,18
 241 587 241 587 202.5 515.5 c 128,-1,19
 164 444 164 444 164 336 c 0,20,21
 164 206 164 206 205 143.5 c 128,-1,22
 246 81 246 81 316 81 c 0,23,12
 387 81 387 81 427.5 143.5 c 128,-1,13
264.5 282.5 m 128,-1,25
 243 304 243 304 243 334 c 0,26,27
 243 365 243 365 264.5 386 c 128,-1,28
 286 407 286 407 316 407 c 256,29,30
 346 407 346 407 367.5 386 c 128,-1,31
 389 365 389 365 389 334 c 0,32,33
 389 304 389 304 367.5 282.5 c 128,-1,34
 346 261 346 261 316 261 c 256,35,24
 286 261 286 261 264.5 282.5 c 128,-1,25
EndSplineSet
EndChar
